<?xml version="1.0" encoding="UTF-8" standalone="no"?>
<!DOCTYPE svg PUBLIC "-//W3C//DTD SVG 1.1//EN" "http://www.w3.org/Graphics/SVG/1.1/DTD/svg11.dtd">
<svg width="100%" height="100%" viewBox="0 0 96 96" version="1.1" xmlns="http://www.w3.org/2000/svg" xmlns:xlink="http://www.w3.org/1999/xlink" xml:space="preserve" xmlns:serif="http://www.serif.com/" style="fill-rule:evenodd;clip-rule:evenodd;stroke-linecap:round;stroke-linejoin:round;stroke-miterlimit:1.5;">
    <g transform="matrix(0.931014,0,0,1,-8.57627,-6.4747)">
        <g transform="matrix(1,0,0,1,-3.9939,-0.971711)">
            <path d="M80.041,14.986C80.041,12.157 77.574,9.859 74.534,9.859L29.454,9.859C26.414,9.859 23.947,12.157 23.947,14.986L23.947,82.957C23.947,85.787 26.414,88.084 29.454,88.084L74.534,88.084C77.574,88.084 80.041,85.787 80.041,82.957L80.041,14.986Z" style="fill:rgb(220,74,94);"/>
        </g>
        <g transform="matrix(0.882823,0,0,0.882823,2.09862,4.76667)">
            <path d="M80.041,14.986C80.041,12.157 77.574,9.859 74.534,9.859L29.454,9.859C26.414,9.859 23.947,12.157 23.947,14.986L23.947,82.957C23.947,85.787 26.414,88.084 29.454,88.084L74.534,88.084C77.574,88.084 80.041,85.787 80.041,82.957L80.041,14.986Z" style="fill:white;"/>
        </g>
    </g>
    <g transform="matrix(1,0,0,1,24.1,46.9952)">
        <path d="M17,13L13,13L13,17L11,17L11,13L7,13L7,11L11,11L11,7L13,7L13,11L17,11M12,2C6.514,2 2,6.514 2,12C2,17.486 6.514,22 12,22C17.486,22 22,17.486 22,12C22,6.514 17.486,2 12,2Z" style="fill:rgb(220,74,94);fill-rule:nonzero;"/>
    </g>
    <g transform="matrix(0.619364,-0.35759,0.406184,0.703531,-3.38343,52.4875)">
        <path d="M53.087,72.209C52.769,71.027 52.504,69.984 52.271,69.145L45.246,43.788C44.612,41.5 46.256,39.043 48.916,38.307C51.575,37.57 54.249,38.83 54.883,41.118L60.627,61.851C59.993,59.563 61.637,57.107 64.297,56.37C66.956,55.633 69.63,56.893 70.264,59.181L70.954,61.669C70.319,59.381 71.964,56.925 74.623,56.188C77.283,55.451 79.956,56.711 80.59,58.999L81.05,60.658C80.416,58.369 82.06,55.913 84.72,55.176C87.379,54.44 90.053,55.7 90.687,57.988C90.732,58.149 90.819,58.465 90.819,58.465C92.873,65.878 100.944,88.257 79.933,94.078C72.591,96.112 67.254,94.586 63.328,91.422C59.858,90.329 55.245,88.333 53.369,85.095C51.289,81.507 52.204,75.76 53.087,72.209Z" style="fill:rgb(220,74,94);stroke:white;stroke-width:1.63px;"/>
        <g transform="matrix(0.963697,-0.266998,0.229771,0.829329,72.4841,6.87567)">
            <path d="M-35.344,80.173C-36.393,73.593 -36.105,67.036 -36.105,63.46L-36.105,62.885" style="fill:rgb(220,74,94);stroke:white;stroke-width:1.83px;"/>
        </g>
    </g>
    <g transform="matrix(1,0,0,1,0.0203386,0)">
        <g transform="matrix(0.306147,0,0,0.306147,-33.5446,-37.8745)">
            <path d="M189.647,164.743C191.977,165.301 197.963,170.743 198.665,172.32C199.024,173.126 197.096,177.199 197.129,178.081C197.206,180.163 201.009,183.743 200.445,184.081C199.881,184.419 194.63,180.392 194.067,179.553C193.596,178.853 194.027,175.6 193.821,174.779C193.572,173.779 189.257,170.361 189.257,170.361L185.55,187.373L185.542,187.405C185.537,187.432 185.531,187.458 185.526,187.484C184.745,191.066 180.174,193.115 175.326,192.059C170.478,191.003 167.172,187.236 167.952,183.659C168.732,180.082 173.304,178.027 178.152,179.084C180.126,179.489 181.952,180.428 183.431,181.797L186.967,165.666C187.338,164 188.819,164.544 189.647,164.743Z" style="fill:rgb(220,74,94);fill-rule:nonzero;"/>
        </g>
        <g transform="matrix(0.306147,0,0,0.306147,-33.5446,-26.3517)">
            <path d="M189.647,164.743C191.977,165.301 197.963,170.743 198.665,172.32C199.024,173.126 197.096,177.199 197.129,178.081C197.206,180.163 201.009,183.743 200.445,184.081C199.881,184.419 194.63,180.392 194.067,179.553C193.596,178.853 194.027,175.6 193.821,174.779C193.572,173.779 189.257,170.361 189.257,170.361L185.55,187.373L185.542,187.405C185.537,187.432 185.531,187.458 185.526,187.484C184.745,191.066 180.174,193.115 175.326,192.059C170.478,191.003 167.172,187.236 167.952,183.659C168.732,180.082 173.304,178.027 178.152,179.084C180.126,179.489 181.952,180.428 183.431,181.797L186.967,165.666C187.338,164 188.819,164.544 189.647,164.743Z" style="fill:rgb(220,74,94);fill-rule:nonzero;"/>
        </g>
        <g transform="matrix(0.306147,0,0,0.306147,-33.5446,-14.8288)">
            <path d="M189.647,164.743C191.977,165.301 197.963,170.743 198.665,172.32C199.024,173.126 197.096,177.199 197.129,178.081C197.206,180.163 201.009,183.743 200.445,184.081C199.881,184.419 194.63,180.392 194.067,179.553C193.596,178.853 194.027,175.6 193.821,174.779C193.572,173.779 189.257,170.361 189.257,170.361L185.55,187.373L185.542,187.405C185.537,187.432 185.531,187.458 185.526,187.484C184.745,191.066 180.174,193.115 175.326,192.059C170.478,191.003 167.172,187.236 167.952,183.659C168.732,180.082 173.304,178.027 178.152,179.084C180.126,179.489 181.952,180.428 183.431,181.797L186.967,165.666C187.338,164 188.819,164.544 189.647,164.743Z" style="fill:rgb(220,74,94);fill-rule:nonzero;"/>
        </g>
        <g transform="matrix(1.11859,0,0,1,-4.23647,-1.04234)">
            <path d="M31.225,17.742L52.349,17.742" style="fill:none;stroke:rgb(220,74,94);stroke-width:2.36px;stroke-linecap:butt;stroke-dasharray:0.94,0.24,0,0;"/>
        </g>
        <g transform="matrix(1.11859,0,0,1,-4.23647,22.0577)">
            <path d="M31.225,17.742L52.349,17.742" style="fill:none;stroke:rgb(220,74,94);stroke-width:2.36px;stroke-linecap:butt;stroke-dasharray:0.94,0.24,0,0;"/>
        </g>
        <g transform="matrix(1.11859,0,0,1,-4.23647,10.5577)">
            <path d="M31.225,17.742L52.349,17.742" style="fill:none;stroke:rgb(220,74,94);stroke-width:2.36px;stroke-linecap:butt;stroke-dasharray:0.94,0.24,0,0;"/>
        </g>
    </g>
</svg>
