<?xml version="1.0" encoding="UTF-8" standalone="no"?><!DOCTYPE svg PUBLIC "-//W3C//DTD SVG 1.1//EN" "http://www.w3.org/Graphics/SVG/1.1/DTD/svg11.dtd"><svg width="100%" height="100%" viewBox="0 0 3000 1400" version="1.1" xmlns="http://www.w3.org/2000/svg" xmlns:xlink="http://www.w3.org/1999/xlink" xml:space="preserve" xmlns:serif="http://www.serif.com/" style="fill-rule:evenodd;clip-rule:evenodd;stroke-linecap:round;stroke-linejoin:round;stroke-miterlimit:1.5;"><g transform="matrix(1,0,0,1,-313.871,-250.529)"><text x="381.926px" y="868.029px" style="font-family:'Roboto-Black', 'Roboto Black';font-weight:900;font-size:180px;fill:#0d47a1;">Need Spotify Pr<tspan x="1663.72px " y="868.029px ">e</tspan>mium</text><text x="381.926px" y="1168.03px" style="font-family:'Roboto-Black', 'Roboto Black';font-weight:900;font-size:180px;fill:#0d47a1;">t<tspan x="441.076px " y="1168.03px ">o</tspan> Star<tspan x="929.572px " y="1168.03px ">t</tspan> Pla<tspan x="1297.04px " y="1168.03px ">y</tspan>back!</text></g><g><path d="M2713.53,375.844l216.854,225.178l-294.687,148.609" style="fill:none;stroke:#000;stroke-width:25px;"/><path d="M2359.73,670.538l-113.214,206.608l50.104,200.284l23.044,141.03" style="fill:none;stroke:#fafafa;stroke-width:25px;"/><path d="M2473.26,90.883c174.838,7.802 311.086,141.823 304.068,299.097c-7.018,157.275 -154.662,278.627 -329.5,270.825c-174.838,-7.802 -311.086,-141.823 -304.067,-299.097c7.018,-157.274 154.662,-278.627 329.499,-270.825Z" style="fill:#0d47a1;stroke:#fafafa;stroke-width:25px;"/><g><path d="M2469.47,327.438l116.309,74.386" style="fill:none;stroke:#fafafa;stroke-width:25px;"/><path d="M2469.47,327.438l137.621,-11.027" style="fill:none;stroke:#fafafa;stroke-width:25px;"/></g><path d="M2374.4,386.102c38.203,-2.113 71.229,32.497 73.704,77.241c2.475,44.744 -26.532,82.786 -64.735,84.899c-38.203,2.114 -71.228,-32.497 -73.703,-77.241c-2.476,-44.744 26.531,-82.786 64.734,-84.899Z" style="fill:#fafafa;stroke:#fafafa;stroke-width:25px;"/><g><path d="M2388.94,299.237l-106.698,-68.239" style="fill:none;stroke:#fafafa;stroke-width:25px;"/><path d="M2388.94,299.237l-126.249,10.116" style="fill:none;stroke:#fafafa;stroke-width:25px;"/></g><path d="M2240.1,579.56c44.939,38.246 115.416,77.125 207.738,81.245c59.691,2.664 116.212,-9.727 165.049,-33.461c1.094,0.032 110.974,-28.705 128.305,-64.606c23.743,-49.184 -57.383,-169.881 -3.072,-201.855c74.226,-43.697 209.9,181.056 192.265,270.167c-22.832,115.38 -158.966,160.752 -219.072,179.614c-1.42,0.446 172.639,372.212 71.729,441.352c-100.91,69.141 -563.759,83.731 -670.347,0c-106.589,-83.731 14.143,-482.818 14.143,-482.818c0,0 -148.021,-51.328 -139.146,-220.864c5.39,-102.954 102.886,-203.429 163.197,-236.479c-3.935,16.114 -6.356,32.772 -7.118,49.853c-1.92,43.016 6.878,84.292 24.251,121.722c6.898,14.862 2.369,24.788 0.861,37.05c-2.327,18.928 9.017,29.556 31.989,35.457c15.308,3.933 32.349,17.769 39.228,23.623Z" style="fill:#0d47a1;stroke:#fafafa;stroke-width:25px;"/><path d="M2509.75,189.557c6.707,20.449 54.245,69.747 120.24,65.892" style="fill:none;stroke:#fafafa;stroke-width:25px;"/><path d="M2425.16,176.345c-11.664,11.04 -59.01,25.679 -98.036,-2.078" style="fill:none;stroke:#fafafa;stroke-width:25px;"/></g></svg>