<?xml version="1.0" encoding="UTF-8" standalone="no"?><!DOCTYPE svg PUBLIC "-//W3C//DTD SVG 1.1//EN" "http://www.w3.org/Graphics/SVG/1.1/DTD/svg11.dtd"><svg width="100%" height="100%" viewBox="0 0 1000 1300" version="1.1" xmlns="http://www.w3.org/2000/svg" xmlns:xlink="http://www.w3.org/1999/xlink" xml:space="preserve" xmlns:serif="http://www.serif.com/" style="fill-rule:evenodd;clip-rule:evenodd;stroke-linecap:round;stroke-linejoin:round;stroke-miterlimit:1.5;"><g><path d="M753.901,325.844l216.855,225.178l-294.687,148.609" style="fill:none;stroke:#000;stroke-width:25px;"/><path d="M400.105,620.538l-113.214,206.608l50.104,200.284l23.044,141.03" style="fill:none;stroke:#fafafa;stroke-width:25px;"/><path d="M513.641,40.883c174.838,7.802 311.086,141.823 304.068,299.097c-7.019,157.275 -154.663,278.627 -329.5,270.825c-174.838,-7.802 -311.086,-141.823 -304.068,-299.097c7.018,-157.274 154.662,-278.627 329.5,-270.825Z" style="fill:#0d47a1;stroke:#fafafa;stroke-width:25px;"/><g><path d="M509.846,277.438l116.309,74.386" style="fill:none;stroke:#fafafa;stroke-width:25px;"/><path d="M509.846,277.438l137.621,-11.027" style="fill:none;stroke:#fafafa;stroke-width:25px;"/></g><path d="M414.778,336.102c38.203,-2.113 71.229,32.497 73.704,77.241c2.475,44.744 -26.532,82.786 -64.735,84.899c-38.203,2.114 -71.229,-32.497 -73.704,-77.241c-2.475,-44.744 26.532,-82.786 64.735,-84.899Z" style="fill:#fafafa;stroke:#fafafa;stroke-width:25px;"/><g><path d="M429.312,249.237l-106.699,-68.239" style="fill:none;stroke:#fafafa;stroke-width:25px;"/><path d="M429.312,249.237l-126.249,10.116" style="fill:none;stroke:#fafafa;stroke-width:25px;"/></g><path d="M280.47,529.56c44.939,38.246 115.417,77.125 207.739,81.245c59.69,2.664 116.211,-9.727 165.049,-33.461c1.094,0.032 110.973,-28.705 128.305,-64.606c23.743,-49.184 -57.383,-169.881 -3.072,-201.855c74.226,-43.697 209.899,181.056 192.265,270.167c-22.833,115.38 -158.967,160.752 -219.072,179.614c-1.421,0.446 172.638,372.212 71.728,441.352c-100.91,69.141 -563.758,83.731 -670.347,0c-106.588,-83.731 14.143,-482.818 14.143,-482.818c0,0 -148.02,-51.328 -139.145,-220.864c5.389,-102.954 102.886,-203.429 163.196,-236.479c-3.934,16.114 -6.355,32.772 -7.118,49.853c-1.919,43.016 6.878,84.292 24.252,121.722c6.898,14.862 2.369,24.788 0.861,37.05c-2.327,18.928 9.016,29.556 31.988,35.457c15.308,3.933 32.35,17.769 39.228,23.623Z" style="fill:#0d47a1;stroke:#fafafa;stroke-width:25px;"/><path d="M550.122,139.557c6.707,20.449 54.244,69.747 120.24,65.892" style="fill:none;stroke:#fafafa;stroke-width:25px;"/><path d="M465.532,126.345c-11.664,11.04 -59.01,25.679 -98.036,-2.078" style="fill:none;stroke:#fafafa;stroke-width:25px;"/></g></svg>