<?xml version="1.0" encoding="UTF-8" standalone="no"?><!DOCTYPE svg PUBLIC "-//W3C//DTD SVG 1.1//EN" "http://www.w3.org/Graphics/SVG/1.1/DTD/svg11.dtd"><svg width="100%" height="100%" viewBox="0 0 3000 1400" version="1.1" xmlns="http://www.w3.org/2000/svg" xmlns:xlink="http://www.w3.org/1999/xlink" xml:space="preserve" xmlns:serif="http://www.serif.com/" style="fill-rule:evenodd;clip-rule:evenodd;stroke-linecap:round;stroke-linejoin:round;stroke-miterlimit:1.5;"><g><path d="M184.598,617.5l-30.674,0l-45.352,-79.629l0,79.629l-30.849,0l0,-127.969l30.849,0l45.264,79.629l0,-79.629l30.762,0l0,127.969Z" style="fill:#0d47a1;fill-rule:nonzero;"/><path d="M248.758,619.258c-14.59,0 -26.397,-4.351 -35.42,-13.052c-9.023,-8.701 -13.535,-20.024 -13.535,-33.97l0,-2.461c0,-9.726 1.802,-18.31 5.405,-25.752c3.604,-7.441 8.862,-13.198 15.776,-17.27c6.915,-4.072 15.118,-6.108 24.61,-6.108c13.359,0 23.906,4.145 31.64,12.436c7.735,8.291 11.602,19.849 11.602,34.673l0,11.514l-58.887,0c1.055,5.332 3.369,9.521 6.944,12.568c3.574,3.047 8.203,4.57 13.886,4.57c9.375,0 16.7,-3.281 21.973,-9.844l13.535,15.997c-3.691,5.097 -8.921,9.155 -15.688,12.172c-6.768,3.018 -14.048,4.527 -21.841,4.527Zm-3.34,-75.762c-8.672,0 -13.828,5.742 -15.469,17.227l29.883,0l0,-2.286c0.117,-4.746 -1.084,-8.422 -3.603,-11.03c-2.52,-2.607 -6.123,-3.911 -10.811,-3.911Z" style="fill:#0d47a1;fill-rule:nonzero;"/><path d="M346.756,619.258c-14.59,0 -26.397,-4.351 -35.42,-13.052c-9.023,-8.701 -13.535,-20.024 -13.535,-33.97l0,-2.461c0,-9.726 1.802,-18.31 5.405,-25.752c3.604,-7.441 8.862,-13.198 15.776,-17.27c6.915,-4.072 15.118,-6.108 24.61,-6.108c13.359,0 23.906,4.145 31.64,12.436c7.735,8.291 11.602,19.849 11.602,34.673l0,11.514l-58.887,0c1.055,5.332 3.369,9.521 6.944,12.568c3.574,3.047 8.203,4.57 13.886,4.57c9.375,0 16.7,-3.281 21.973,-9.844l13.535,15.997c-3.691,5.097 -8.921,9.155 -15.688,12.172c-6.768,3.018 -14.048,4.527 -21.841,4.527Zm-3.34,-75.762c-8.672,0 -13.828,5.742 -15.469,17.227l29.883,0l0,-2.286c0.117,-4.746 -1.084,-8.422 -3.603,-11.03c-2.52,-2.607 -6.123,-3.911 -10.811,-3.911Z" style="fill:#0d47a1;fill-rule:nonzero;"/><path d="M395.008,569.248c0,-15.059 3.252,-26.924 9.756,-35.596c6.504,-8.672 15.586,-13.007 27.246,-13.007c8.496,0 15.644,3.339 21.445,10.019l0,-48.164l29.707,0l0,135l-26.631,0l-1.494,-10.195c-6.094,7.968 -13.828,11.953 -23.203,11.953c-11.309,0 -20.273,-4.336 -26.894,-13.008c-6.622,-8.672 -9.932,-21.006 -9.932,-37.002Zm29.619,1.846c0,16.875 4.922,25.312 14.766,25.312c6.562,0 11.25,-2.754 14.062,-8.261l0,-36.211c-2.695,-5.625 -7.324,-8.438 -13.887,-8.438c-9.14,0 -14.091,7.383 -14.853,22.149l-0.088,5.449Z" style="fill:#0d47a1;fill-rule:nonzero;"/><path d="M612.186,583.486c0,-4.511 -1.597,-8.027 -4.79,-10.547c-3.194,-2.519 -8.804,-5.127 -16.831,-7.822c-8.028,-2.695 -14.59,-5.303 -19.688,-7.822c-16.582,-8.145 -24.873,-19.336 -24.873,-33.574c0,-7.09 2.065,-13.345 6.196,-18.765c4.131,-5.42 9.976,-9.639 17.534,-12.656c7.559,-3.018 16.055,-4.527 25.489,-4.527c9.199,0 17.446,1.641 24.741,4.922c7.295,3.282 12.964,7.954 17.007,14.019c4.043,6.064 6.064,12.993 6.064,20.786l-30.761,0c0,-5.215 -1.597,-9.258 -4.791,-12.129c-3.193,-2.871 -7.514,-4.307 -12.963,-4.307c-5.508,0 -9.859,1.216 -13.052,3.648c-3.194,2.432 -4.79,5.522 -4.79,9.272c0,3.282 1.758,6.255 5.273,8.921c3.516,2.666 9.698,5.42 18.545,8.262c8.848,2.842 16.113,5.903 21.797,9.185c13.828,7.968 20.742,18.955 20.742,32.959c0,11.191 -4.219,19.98 -12.656,26.367c-8.438,6.386 -20.01,9.58 -34.717,9.58c-10.371,0 -19.761,-1.861 -28.169,-5.581c-8.408,-3.721 -14.736,-8.819 -18.984,-15.293c-4.248,-6.475 -6.372,-13.931 -6.372,-22.368l30.937,0c0,6.855 1.773,11.909 5.318,15.161c3.545,3.252 9.301,4.878 17.27,4.878c5.098,0 9.126,-1.099 12.085,-3.296c2.959,-2.197 4.439,-5.288 4.439,-9.273Z" style="fill:#0d47a1;fill-rule:nonzero;"/><path d="M745.779,570.654c0,14.766 -3.325,26.558 -9.975,35.376c-6.651,8.819 -15.63,13.228 -26.939,13.228c-8.73,0 -15.908,-3.194 -21.533,-9.58l0,44.385l-29.619,0l0,-131.661l27.686,0l0.878,8.789c5.684,-7.031 13.155,-10.546 22.413,-10.546c11.718,0 20.83,4.321 27.334,12.963c6.503,8.643 9.755,20.523 9.755,35.64l0,1.406Zm-29.619,-1.845c0,-16.875 -4.922,-25.313 -14.765,-25.313c-7.032,0 -11.719,2.52 -14.063,7.559l0,37.441c2.578,5.274 7.324,7.91 14.238,7.91c9.434,0 14.297,-8.144 14.59,-24.433l0,-3.164Z" style="fill:#0d47a1;fill-rule:nonzero;"/><path d="M755.096,569.072c0,-9.492 1.845,-17.944 5.537,-25.356c3.691,-7.412 8.994,-13.111 15.908,-17.095c6.914,-3.984 15.029,-5.976 24.346,-5.976c14.238,0 25.459,4.409 33.662,13.227c8.203,8.818 12.305,20.815 12.305,35.991l0,1.055c0,14.824 -4.117,26.587 -12.349,35.288c-8.232,8.701 -19.38,13.052 -33.442,13.052c-13.536,0 -24.405,-4.058 -32.608,-12.173c-8.203,-8.115 -12.627,-19.116 -13.271,-33.003l-0.088,-5.01Zm29.619,1.846c0,8.789 1.377,15.234 4.131,19.336c2.754,4.101 6.826,6.152 12.217,6.152c10.546,0 15.937,-8.115 16.171,-24.345l0,-2.989c0,-17.051 -5.449,-25.576 -16.347,-25.576c-9.903,0 -15.264,7.354 -16.084,22.061l-0.088,5.361Z" style="fill:#0d47a1;fill-rule:nonzero;"/><path d="M894.402,498.76l0,23.642l15.645,0l0,20.567l-15.645,0l0,43.506c0,3.574 0.645,6.064 1.934,7.47c1.289,1.407 3.838,2.11 7.646,2.11c2.93,0 5.391,-0.176 7.383,-0.528l0,21.182c-5.332,1.699 -10.898,2.549 -16.699,2.549c-10.195,0 -17.725,-2.403 -22.588,-7.207c-4.863,-4.805 -7.295,-12.1 -7.295,-21.885l0,-47.197l-12.129,0l0,-20.567l12.129,0l0,-23.642l29.619,0Z" style="fill:#0d47a1;fill-rule:nonzero;"/><path d="M952.938,617.5l-29.707,0l0,-95.098l29.707,0l0,95.098Zm-31.465,-119.619c0,-4.219 1.523,-7.676 4.57,-10.371c3.047,-2.696 7.002,-4.043 11.865,-4.043c4.864,0 8.819,1.347 11.866,4.043c3.046,2.695 4.57,6.152 4.57,10.371c0,4.219 -1.524,7.676 -4.57,10.371c-3.047,2.695 -7.002,4.043 -11.866,4.043c-4.863,0 -8.818,-1.348 -11.865,-4.043c-3.047,-2.695 -4.57,-6.152 -4.57,-10.371Z" style="fill:#0d47a1;fill-rule:nonzero;"/><path d="M977.723,617.5l0,-74.531l-13.799,0l0,-20.567l13.799,0l0,-7.558c0,-10.84 3.193,-19.248 9.58,-25.225c6.387,-5.976 15.351,-8.965 26.894,-8.965c4.219,0 8.848,0.616 13.887,1.846l0.088,21.797c-1.816,-0.527 -4.248,-0.791 -7.295,-0.791c-8.965,0 -13.447,3.867 -13.447,11.601l0,7.295l18.545,0l0,20.567l-18.545,0l0,74.531l-29.707,0Z" style="fill:#0d47a1;fill-rule:nonzero;"/><path d="M1074.4,576.016l15.821,-53.614l31.728,0l-38.76,111.006l-1.669,4.043c-5.508,12.305 -15.235,18.457 -29.18,18.457c-3.867,0 -7.94,-0.586 -12.217,-1.758l0,-21.181l3.867,0c4.16,0 7.339,-0.601 9.536,-1.802c2.198,-1.201 3.824,-3.354 4.878,-6.46l2.373,-6.328l-33.047,-95.977l31.641,0l15.029,53.614Z" style="fill:#0d47a1;fill-rule:nonzero;"/><path d="M1206.68,574.082l0,43.418l-30.85,0l0,-127.969l51.065,0c9.785,0 18.442,1.802 25.971,5.406c7.53,3.603 13.36,8.73 17.491,15.38c4.13,6.651 6.196,14.195 6.196,22.632c0,12.481 -4.468,22.456 -13.403,29.927c-8.936,7.471 -21.197,11.206 -36.783,11.206l-19.687,0Zm0,-23.818l20.215,0c5.976,0 10.532,-1.494 13.667,-4.483c3.134,-2.988 4.702,-7.207 4.702,-12.656c0,-5.977 -1.612,-10.752 -4.834,-14.326c-3.223,-3.574 -7.617,-5.391 -13.184,-5.449l-20.566,0l0,36.914Z" style="fill:#0d47a1;fill-rule:nonzero;"/><path d="M1349.15,549.209l-9.756,-0.703c-9.317,0 -15.293,2.93 -17.93,8.789l0,60.205l-29.619,0l0,-95.098l27.773,0l0.967,12.217c4.981,-9.316 11.924,-13.974 20.83,-13.974c3.164,0 5.918,0.351 8.262,1.054l-0.527,27.51Z" style="fill:#0d47a1;fill-rule:nonzero;"/><path d="M1404.17,619.258c-14.59,0 -26.396,-4.351 -35.42,-13.052c-9.023,-8.701 -13.535,-20.024 -13.535,-33.97l0,-2.461c0,-9.726 1.802,-18.31 5.405,-25.752c3.604,-7.441 8.863,-13.198 15.777,-17.27c6.914,-4.072 15.117,-6.108 24.609,-6.108c13.359,0 23.906,4.145 31.641,12.436c7.734,8.291 11.601,19.849 11.601,34.673l0,11.514l-58.887,0c1.055,5.332 3.37,9.521 6.944,12.568c3.574,3.047 8.203,4.57 13.887,4.57c9.375,0 16.699,-3.281 21.972,-9.844l13.535,15.997c-3.691,5.097 -8.921,9.155 -15.688,12.172c-6.768,3.018 -14.048,4.527 -21.841,4.527Zm-3.34,-75.762c-8.672,0 -13.828,5.742 -15.469,17.227l29.883,0l0,-2.286c0.117,-4.746 -1.084,-8.422 -3.603,-11.03c-2.52,-2.607 -6.123,-3.911 -10.811,-3.911Z" style="fill:#0d47a1;fill-rule:nonzero;"/><path d="M1484.15,522.402l0.966,11.162c6.739,-8.613 15.791,-12.919 27.159,-12.919c12.011,0 20.126,4.775 24.345,14.326c6.446,-9.551 15.762,-14.326 27.949,-14.326c19.278,0 29.18,11.66 29.707,34.98l0,61.875l-29.707,0l0,-60.029c0,-4.864 -0.82,-8.409 -2.461,-10.635c-1.64,-2.227 -4.628,-3.34 -8.964,-3.34c-5.86,0 -10.225,2.608 -13.096,7.822l0.088,1.231l0,64.951l-29.707,0l0,-59.854c0,-4.98 -0.791,-8.584 -2.373,-10.81c-1.582,-2.227 -4.6,-3.34 -9.053,-3.34c-5.684,0 -10.02,2.608 -13.008,7.822l0,66.182l-29.619,0l0,-95.098l27.774,0Z" style="fill:#0d47a1;fill-rule:nonzero;"/><path d="M1642.44,617.5l-29.708,0l0,-95.098l29.708,0l0,95.098Zm-31.465,-119.619c0,-4.219 1.523,-7.676 4.57,-10.371c3.047,-2.696 7.002,-4.043 11.865,-4.043c4.864,0 8.819,1.347 11.865,4.043c3.047,2.695 4.571,6.152 4.571,10.371c0,4.219 -1.524,7.676 -4.571,10.371c-3.046,2.695 -7.001,4.043 -11.865,4.043c-4.863,0 -8.818,-1.348 -11.865,-4.043c-3.047,-2.695 -4.57,-6.152 -4.57,-10.371Z" style="fill:#0d47a1;fill-rule:nonzero;"/><path d="M1717.32,607.217c-6.269,8.027 -14.736,12.041 -25.4,12.041c-10.43,0 -18.325,-3.032 -23.687,-9.097c-5.361,-6.064 -8.042,-14.78 -8.042,-26.147l0,-61.612l29.62,0l0,61.787c0,8.145 3.955,12.217 11.865,12.217c6.797,0 11.631,-2.431 14.502,-7.295l0,-66.709l29.795,0l0,95.098l-27.774,0l-0.879,-10.283Z" style="fill:#0d47a1;fill-rule:nonzero;"/><path d="M1790.18,522.402l0.966,11.162c6.739,-8.613 15.791,-12.919 27.159,-12.919c12.011,0 20.127,4.775 24.345,14.326c6.446,-9.551 15.762,-14.326 27.95,-14.326c19.277,0 29.179,11.66 29.707,34.98l0,61.875l-29.707,0l0,-60.029c0,-4.864 -0.821,-8.409 -2.461,-10.635c-1.641,-2.227 -4.629,-3.34 -8.965,-3.34c-5.86,0 -10.225,2.608 -13.096,7.822l0.088,1.231l0,64.951l-29.707,0l0,-59.854c0,-4.98 -0.791,-8.584 -2.373,-10.81c-1.582,-2.227 -4.6,-3.34 -9.053,-3.34c-5.683,0 -10.019,2.608 -13.008,7.822l0,66.182l-29.619,0l0,-95.098l27.774,0Z" style="fill:#0d47a1;fill-rule:nonzero;"/><path d="M110.857,798.76l0,23.642l15.645,0l0,20.567l-15.645,0l0,43.506c0,3.574 0.645,6.064 1.934,7.47c1.289,1.407 3.838,2.11 7.647,2.11c2.929,0 5.39,-0.176 7.382,-0.528l0,21.182c-5.332,1.699 -10.898,2.549 -16.699,2.549c-10.195,0 -17.724,-2.403 -22.588,-7.207c-4.863,-4.805 -7.295,-12.1 -7.295,-21.885l0,-47.197l-12.129,0l0,-20.567l12.129,0l0,-23.642l29.619,0Z" style="fill:#0d47a1;fill-rule:nonzero;"/><path d="M131.775,869.072c0,-9.492 1.846,-17.944 5.538,-25.356c3.691,-7.412 8.994,-13.111 15.908,-17.095c6.914,-3.984 15.029,-5.976 24.345,-5.976c14.239,0 25.459,4.409 33.663,13.227c8.203,8.818 12.304,20.815 12.304,35.991l0,1.055c0,14.824 -4.116,26.587 -12.348,35.288c-8.233,8.701 -19.38,13.052 -33.443,13.052c-13.535,0 -24.404,-4.058 -32.607,-12.173c-8.203,-8.115 -12.627,-19.116 -13.272,-33.003l-0.088,-5.01Zm29.62,1.846c0,8.789 1.377,15.234 4.13,19.336c2.754,4.101 6.827,6.152 12.217,6.152c10.547,0 15.938,-8.115 16.172,-24.345l0,-2.989c0,-17.051 -5.449,-25.576 -16.348,-25.576c-9.902,0 -15.263,7.354 -16.084,22.061l-0.087,5.361Z" style="fill:#0d47a1;fill-rule:nonzero;"/><path d="M348.777,883.486c0,-4.511 -1.596,-8.027 -4.79,-10.547c-3.193,-2.519 -8.803,-5.127 -16.831,-7.822c-8.027,-2.695 -14.59,-5.303 -19.687,-7.822c-16.582,-8.145 -24.873,-19.336 -24.873,-33.574c0,-7.09 2.065,-13.345 6.196,-18.765c4.131,-5.42 9.976,-9.639 17.534,-12.656c7.559,-3.018 16.055,-4.527 25.489,-4.527c9.199,0 17.446,1.641 24.741,4.922c7.295,3.282 12.964,7.954 17.007,14.019c4.043,6.064 6.064,12.993 6.064,20.786l-30.762,0c0,-5.215 -1.596,-9.258 -4.79,-12.129c-3.193,-2.871 -7.514,-4.307 -12.964,-4.307c-5.507,0 -9.858,1.216 -13.051,3.648c-3.194,2.432 -4.79,5.522 -4.79,9.272c0,3.282 1.757,6.255 5.273,8.921c3.516,2.666 9.697,5.42 18.545,8.262c8.848,2.842 16.113,5.903 21.797,9.185c13.828,7.968 20.742,18.955 20.742,32.959c0,11.191 -4.219,19.98 -12.656,26.367c-8.438,6.386 -20.01,9.58 -34.717,9.58c-10.371,0 -19.761,-1.861 -28.169,-5.581c-8.408,-3.721 -14.736,-8.819 -18.984,-15.293c-4.248,-6.475 -6.372,-13.931 -6.372,-22.368l30.937,0c0,6.855 1.773,11.909 5.317,15.161c3.545,3.252 9.302,4.878 17.271,4.878c5.098,0 9.126,-1.099 12.085,-3.296c2.959,-2.197 4.438,-5.288 4.438,-9.273Z" style="fill:#0d47a1;fill-rule:nonzero;"/><path d="M428.582,798.76l0,23.642l15.645,0l0,20.567l-15.645,0l0,43.506c0,3.574 0.645,6.064 1.934,7.47c1.289,1.407 3.838,2.11 7.646,2.11c2.93,0 5.391,-0.176 7.383,-0.528l0,21.182c-5.332,1.699 -10.898,2.549 -16.699,2.549c-10.196,0 -17.725,-2.403 -22.588,-7.207c-4.863,-4.805 -7.295,-12.1 -7.295,-21.885l0,-47.197l-12.129,0l0,-20.567l12.129,0l0,-23.642l29.619,0Z" style="fill:#0d47a1;fill-rule:nonzero;"/><path d="M509.441,917.5c-1.054,-1.934 -1.992,-4.775 -2.812,-8.525c-5.449,6.855 -13.066,10.283 -22.852,10.283c-8.964,0 -16.582,-2.71 -22.851,-8.13c-6.27,-5.42 -9.404,-12.232 -9.404,-20.435c0,-10.312 3.808,-18.105 11.425,-23.379c7.618,-5.273 18.692,-7.91 33.223,-7.91l9.141,0l0,-5.009c0,-8.731 -3.78,-13.096 -11.338,-13.096c-7.032,0 -10.547,3.457 -10.547,10.371l-29.619,0c0,-9.199 3.911,-16.67 11.733,-22.412c7.822,-5.742 17.798,-8.613 29.927,-8.613c12.129,0 21.709,2.959 28.74,8.876c7.031,5.918 10.635,14.034 10.811,24.346l0,42.1c0.117,8.73 1.464,15.41 4.043,20.039l0,1.494l-29.62,0Zm-18.544,-19.336c3.691,0 6.752,-0.791 9.184,-2.373c2.432,-1.582 4.175,-3.369 5.23,-5.361l0,-15.205l-8.614,0c-10.312,0 -15.468,4.629 -15.468,13.886c0,2.696 0.908,4.878 2.724,6.548c1.817,1.67 4.131,2.505 6.944,2.505Z" style="fill:#0d47a1;fill-rule:nonzero;"/><path d="M608.934,849.209l-9.756,-0.703c-9.317,0 -15.293,2.93 -17.93,8.789l0,60.205l-29.619,0l0,-95.098l27.773,0l0.967,12.217c4.981,-9.316 11.924,-13.974 20.83,-13.974c3.164,0 5.918,0.351 8.262,1.054l-0.527,27.51Z" style="fill:#0d47a1;fill-rule:nonzero;"/><path d="M658.504,798.76l0,23.642l15.645,0l0,20.567l-15.645,0l0,43.506c0,3.574 0.645,6.064 1.934,7.47c1.289,1.407 3.837,2.11 7.646,2.11c2.93,0 5.391,-0.176 7.383,-0.528l0,21.182c-5.332,1.699 -10.899,2.549 -16.699,2.549c-10.196,0 -17.725,-2.403 -22.588,-7.207c-4.864,-4.805 -7.295,-12.1 -7.295,-21.885l0,-47.197l-12.129,0l0,-20.567l12.129,0l0,-23.642l29.619,0Z" style="fill:#0d47a1;fill-rule:nonzero;"/><path d="M762.83,874.082l0,43.418l-30.849,0l0,-127.969l51.064,0c9.785,0 18.442,1.802 25.972,5.406c7.529,3.603 13.359,8.73 17.49,15.38c4.131,6.651 6.196,14.195 6.196,22.632c0,12.481 -4.468,22.456 -13.403,29.927c-8.936,7.471 -21.196,11.206 -36.782,11.206l-19.688,0Zm0,-23.818l20.215,0c5.977,0 10.532,-1.494 13.667,-4.483c3.135,-2.988 4.702,-7.207 4.702,-12.656c0,-5.977 -1.611,-10.752 -4.834,-14.326c-3.223,-3.574 -7.617,-5.391 -13.183,-5.449l-20.567,0l0,36.914Z" style="fill:#0d47a1;fill-rule:nonzero;"/><rect x="849.315" y="782.5" width="29.707" height="135" style="fill:#0d47a1;fill-rule:nonzero;"/><path d="M950.828,917.5c-1.054,-1.934 -1.992,-4.775 -2.812,-8.525c-5.45,6.855 -13.067,10.283 -22.852,10.283c-8.965,0 -16.582,-2.71 -22.851,-8.13c-6.27,-5.42 -9.405,-12.232 -9.405,-20.435c0,-10.312 3.809,-18.105 11.426,-23.379c7.617,-5.273 18.691,-7.91 33.223,-7.91l9.14,0l0,-5.009c0,-8.731 -3.779,-13.096 -11.338,-13.096c-7.031,0 -10.546,3.457 -10.546,10.371l-29.62,0c0,-9.199 3.912,-16.67 11.734,-22.412c7.822,-5.742 17.798,-8.613 29.927,-8.613c12.128,0 21.709,2.959 28.74,8.876c7.031,5.918 10.635,14.034 10.81,24.346l0,42.1c0.118,8.73 1.465,15.41 4.043,20.039l0,1.494l-29.619,0Zm-18.545,-19.336c3.692,0 6.753,-0.791 9.185,-2.373c2.431,-1.582 4.175,-3.369 5.229,-5.361l0,-15.205l-8.613,0c-10.312,0 -15.469,4.629 -15.469,13.886c0,2.696 0.909,4.878 2.725,6.548c1.816,1.67 4.131,2.505 6.943,2.505Z" style="fill:#0d47a1;fill-rule:nonzero;"/><path d="M1029.49,876.016l15.821,-53.614l31.728,0l-38.76,111.006l-1.67,4.043c-5.507,12.305 -15.234,18.457 -29.179,18.457c-3.867,0 -7.94,-0.586 -12.217,-1.758l0,-21.181l3.867,0c4.16,0 7.339,-0.601 9.536,-1.802c2.198,-1.201 3.824,-3.354 4.878,-6.46l2.373,-6.328l-33.047,-95.977l31.641,0l15.029,53.614Z" style="fill:#0d47a1;fill-rule:nonzero;"/><path d="M1173.02,870.742c0,15.586 -3.223,27.569 -9.668,35.947c-6.446,8.379 -15.528,12.569 -27.246,12.569c-9.668,0 -17.461,-3.838 -23.379,-11.514l-1.231,9.756l-26.543,0l0,-135l29.619,0l0,47.549c5.508,-6.27 12.627,-9.404 21.358,-9.404c11.836,0 20.976,4.248 27.422,12.744c6.445,8.496 9.668,20.449 9.668,35.859l0,1.494Zm-29.707,-1.846c0,-9.14 -1.216,-15.659 -3.648,-19.555c-2.431,-3.897 -6.167,-5.845 -11.206,-5.845c-6.68,0 -11.308,2.549 -13.887,7.647l0,37.793c2.52,5.039 7.207,7.558 14.063,7.558c6.973,0 11.396,-3.398 13.271,-10.195c0.938,-3.34 1.407,-9.141 1.407,-17.403Z" style="fill:#0d47a1;fill-rule:nonzero;"/><path d="M1239.64,917.5c-1.055,-1.934 -1.992,-4.775 -2.813,-8.525c-5.449,6.855 -13.066,10.283 -22.851,10.283c-8.965,0 -16.582,-2.71 -22.852,-8.13c-6.269,-5.42 -9.404,-12.232 -9.404,-20.435c0,-10.312 3.808,-18.105 11.426,-23.379c7.617,-5.273 18.691,-7.91 33.222,-7.91l9.141,0l0,-5.009c0,-8.731 -3.779,-13.096 -11.338,-13.096c-7.031,0 -10.547,3.457 -10.547,10.371l-29.619,0c0,-9.199 3.911,-16.67 11.733,-22.412c7.823,-5.742 17.798,-8.613 29.927,-8.613c12.129,0 21.709,2.959 28.74,8.876c7.032,5.918 10.635,14.034 10.811,24.346l0,42.1c0.117,8.73 1.465,15.41 4.043,20.039l0,1.494l-29.619,0Zm-18.545,-19.336c3.691,0 6.753,-0.791 9.184,-2.373c2.432,-1.582 4.175,-3.369 5.23,-5.361l0,-15.205l-8.613,0c-10.313,0 -15.469,4.629 -15.469,13.886c0,2.696 0.908,4.878 2.725,6.548c1.816,1.67 4.13,2.505 6.943,2.505Z" style="fill:#0d47a1;fill-rule:nonzero;"/><path d="M1321.82,896.406c4.16,0 7.382,-1.128 9.667,-3.384c2.286,-2.255 3.399,-5.405 3.34,-9.448l27.774,0c0,10.43 -3.736,18.985 -11.206,25.664c-7.471,6.68 -17.095,10.02 -28.872,10.02c-13.828,0 -24.727,-4.336 -32.696,-13.008c-7.968,-8.672 -11.953,-20.684 -11.953,-36.035l0,-1.231c0,-9.609 1.773,-18.09 5.318,-25.444c3.545,-7.353 8.657,-13.008 15.337,-16.963c6.679,-3.955 14.589,-5.932 23.73,-5.932c12.363,0 22.178,3.427 29.443,10.283c7.266,6.855 10.899,16.142 10.899,27.861l-27.774,0c0,-4.922 -1.201,-8.701 -3.603,-11.338c-2.403,-2.637 -5.625,-3.955 -9.668,-3.955c-7.676,0 -12.158,4.893 -13.447,14.678c-0.411,3.105 -0.616,7.383 -0.616,12.832c0,9.551 1.143,16.172 3.428,19.863c2.285,3.692 5.918,5.537 10.899,5.537Z" style="fill:#0d47a1;fill-rule:nonzero;"/><path d="M1413.31,882.08l-8.35,8.35l0,27.07l-29.619,0l0,-135.088l29.619,0l0,71.719l2.988,-3.955l22.325,-27.774l35.507,0l-33.31,39.112l35.508,55.986l-33.926,0l-20.742,-35.42Z" style="fill:#0d47a1;fill-rule:nonzero;"/><path d="M1502.96,876.982l-23.994,0l-3.779,-87.451l31.552,0l-3.779,87.451Zm-28.652,27.247c0,-4.336 1.567,-7.896 4.702,-10.679c3.135,-2.783 7.046,-4.175 11.733,-4.175c4.688,0 8.599,1.392 11.734,4.175c3.134,2.783 4.702,6.343 4.702,10.679c0,4.335 -1.568,7.895 -4.702,10.678c-3.135,2.783 -7.046,4.175 -11.734,4.175c-4.687,0 -8.598,-1.392 -11.733,-4.175c-3.135,-2.783 -4.702,-6.343 -4.702,-10.678Z" style="fill:#0d47a1;fill-rule:nonzero;"/></g><g><path d="M2713.53,375.844l216.854,225.178l-294.687,148.609" style="fill:none;stroke:#000;stroke-width:25px;"/><path d="M2359.73,670.538l-113.214,206.608l50.104,200.284l23.044,141.03" style="fill:none;stroke:#fafafa;stroke-width:25px;"/><path d="M2473.26,90.883c174.838,7.802 311.086,141.823 304.068,299.097c-7.018,157.275 -154.662,278.627 -329.5,270.825c-174.838,-7.802 -311.086,-141.823 -304.067,-299.097c7.018,-157.274 154.662,-278.627 329.499,-270.825Z" style="fill:#0d47a1;stroke:#fafafa;stroke-width:25px;"/><g><path d="M2469.47,327.438l116.309,74.386" style="fill:none;stroke:#fafafa;stroke-width:25px;"/><path d="M2469.47,327.438l137.621,-11.027" style="fill:none;stroke:#fafafa;stroke-width:25px;"/></g><path d="M2374.4,386.102c38.203,-2.113 71.229,32.497 73.704,77.241c2.475,44.744 -26.532,82.786 -64.735,84.899c-38.203,2.114 -71.228,-32.497 -73.703,-77.241c-2.476,-44.744 26.531,-82.786 64.734,-84.899Z" style="fill:#fafafa;stroke:#fafafa;stroke-width:25px;"/><g><path d="M2388.94,299.237l-106.698,-68.239" style="fill:none;stroke:#fafafa;stroke-width:25px;"/><path d="M2388.94,299.237l-126.249,10.116" style="fill:none;stroke:#fafafa;stroke-width:25px;"/></g><path d="M2240.1,579.56c44.939,38.246 115.416,77.125 207.738,81.245c59.691,2.664 116.212,-9.727 165.049,-33.461c1.094,0.032 110.974,-28.705 128.305,-64.606c23.743,-49.184 -57.383,-169.881 -3.072,-201.855c74.226,-43.697 209.9,181.056 192.265,270.167c-22.832,115.38 -158.966,160.752 -219.072,179.614c-1.42,0.446 172.639,372.212 71.729,441.352c-100.91,69.141 -563.759,83.731 -670.347,0c-106.589,-83.731 14.143,-482.818 14.143,-482.818c0,0 -148.021,-51.328 -139.146,-220.864c5.39,-102.954 102.886,-203.429 163.197,-236.479c-3.935,16.114 -6.356,32.772 -7.118,49.853c-1.92,43.016 6.878,84.292 24.251,121.722c6.898,14.862 2.369,24.788 0.861,37.05c-2.327,18.928 9.017,29.556 31.989,35.457c15.308,3.933 32.349,17.769 39.228,23.623Z" style="fill:#0d47a1;stroke:#fafafa;stroke-width:25px;"/><path d="M2509.75,189.557c6.707,20.449 54.245,69.747 120.24,65.892" style="fill:none;stroke:#fafafa;stroke-width:25px;"/><path d="M2425.16,176.345c-11.664,11.04 -59.01,25.679 -98.036,-2.078" style="fill:none;stroke:#fafafa;stroke-width:25px;"/></g></svg>