<?xml version="1.0" encoding="UTF-8" standalone="no"?><!DOCTYPE svg PUBLIC "-//W3C//DTD SVG 1.1//EN" "http://www.w3.org/Graphics/SVG/1.1/DTD/svg11.dtd"><svg width="100%" height="100%" viewBox="0 0 168 168" version="1.1" xmlns="http://www.w3.org/2000/svg" xmlns:xlink="http://www.w3.org/1999/xlink" xml:space="preserve" xmlns:serif="http://www.serif.com/" style="fill-rule:evenodd;clip-rule:evenodd;stroke-linecap:round;stroke-linejoin:round;stroke-miterlimit:1.5;"><g><circle cx="84" cy="84" r="84" style="fill:#0d47a1;"/><path d="M104.259,26.368c8.616,2.066 30.753,22.204 33.347,28.02c1.33,2.981 -5.8,18.045 -5.68,21.307c0.283,7.697 14.347,20.937 12.261,22.189c-2.087,1.251 -21.506,-13.641 -23.584,-16.745c-1.743,-2.602 -0.148,-14.617 -0.91,-17.655c-0.923,-3.679 -16.878,-16.339 -16.878,-16.339l-13.707,62.908c-0.008,0.04 -0.018,0.079 -0.028,0.118c-0.019,0.097 -0.039,0.194 -0.061,0.291c-2.885,13.245 -19.79,20.825 -37.726,16.917c-17.936,-3.908 -30.155,-17.834 -27.269,-31.079c2.886,-13.245 19.791,-20.825 37.727,-16.917c7.873,1.715 14.645,5.362 19.521,10.033l13.078,-59.653c1.369,-6.14 6.845,-4.129 9.909,-3.395Z" style="fill:#fafafa;stroke:#fafafa;stroke-width:3px;"/></g></svg>