<?xml version="1.0" encoding="UTF-8" standalone="no"?><!DOCTYPE svg PUBLIC "-//W3C//DTD SVG 1.1//EN" "http://www.w3.org/Graphics/SVG/1.1/DTD/svg11.dtd"><svg width="100%" height="100%" viewBox="0 0 842 298" version="1.1" xmlns="http://www.w3.org/2000/svg" xmlns:xlink="http://www.w3.org/1999/xlink" xml:space="preserve" xmlns:serif="http://www.serif.com/" style="fill-rule:evenodd;clip-rule:evenodd;stroke-linejoin:round;stroke-miterlimit:2;"><rect x="0" y="0" width="841.89" height="297.638" style="fill:#fff9c4;"/><path d="M385.593,184.729c1.248,0 2.232,0.576 2.952,1.728c0.72,1.152 1.08,2.736 1.08,4.752c0,3.456 -0.816,6.432 -2.448,8.928c-2.688,4.128 -6.216,7.344 -10.584,9.648c-4.368,2.304 -9.576,3.456 -15.624,3.456c-9.216,0 -16.368,-2.76 -21.456,-8.28c-5.088,-5.52 -7.632,-12.984 -7.632,-22.392c0,-6.624 1.392,-12.792 4.176,-18.504c2.784,-5.712 6.648,-10.248 11.592,-13.608c4.944,-3.36 10.536,-5.04 16.776,-5.04c5.568,0 10.032,1.656 13.392,4.968c3.36,3.312 5.04,7.8 5.04,13.464c0,6.624 -2.376,12.312 -7.128,17.064c-4.752,4.752 -12.84,8.52 -24.264,11.304c2.304,4.416 6.192,6.624 11.664,6.624c3.936,0 7.176,-0.912 9.72,-2.736c2.544,-1.824 5.496,-4.896 8.856,-9.216c1.152,-1.44 2.448,-2.16 3.888,-2.16Zm-23.616,-25.2c-3.552,0 -6.552,2.064 -9,6.192c-2.448,4.128 -3.672,9.12 -3.672,14.976l0,0.288c5.664,-1.344 10.128,-3.36 13.392,-6.048c3.264,-2.688 4.896,-5.808 4.896,-9.36c0,-1.824 -0.504,-3.288 -1.512,-4.392c-1.008,-1.104 -2.376,-1.656 -4.104,-1.656Z" style="fill:#0d47a1;"/><path d="M716.361,150.169c2.4,0 4.104,0.36 5.112,1.08c1.008,0.72 1.512,2.136 1.512,4.248c0,1.152 -0.048,2.064 -0.144,2.736c-0.384,2.976 -1.584,10.656 -3.6,23.04c-1.44,8.352 -2.352,13.872 -2.736,16.56c-3.648,24.768 -8.568,44.328 -14.76,58.68c-6.192,14.352 -14.472,21.528 -24.84,21.528c-4.896,0 -8.88,-1.512 -11.952,-4.536c-3.072,-3.024 -4.608,-6.984 -4.608,-11.88c0,-6.816 2.688,-14.136 8.064,-21.96c5.376,-7.824 15.456,-17.448 30.24,-28.872l0.864,-5.616c-1.632,2.592 -3.768,4.584 -6.408,5.976c-2.64,1.392 -5.256,2.088 -7.848,2.088c-5.952,0 -10.704,-2.16 -14.256,-6.48c-3.552,-4.32 -5.328,-9.984 -5.328,-16.992c0,-7.68 1.776,-14.952 5.328,-21.816c3.552,-6.864 8.28,-12.384 14.184,-16.56c5.904,-4.176 12.168,-6.264 18.792,-6.264c2.112,0 3.528,0.408 4.248,1.224c0.72,0.816 1.32,2.28 1.8,4.392c1.824,-0.384 3.936,-0.576 6.336,-0.576Zm-25.92,48.528c2.208,0 4.32,-1.344 6.336,-4.032c2.016,-2.688 3.456,-6.528 4.32,-11.52l4.608,-24.624c-3.936,0.096 -7.584,1.608 -10.944,4.536c-3.36,2.928 -6.048,6.792 -8.064,11.592c-2.016,4.8 -3.024,9.888 -3.024,15.264c0,2.976 0.6,5.184 1.8,6.624c1.2,1.44 2.856,2.16 4.968,2.16Zm-11.952,65.376c2.4,0 5.112,-2.88 8.136,-8.64c3.024,-5.76 5.928,-14.928 8.712,-27.504c-7.392,6.336 -12.72,12.048 -15.984,17.136c-3.264,5.088 -4.896,9.552 -4.896,13.392c0,1.632 0.312,2.976 0.936,4.032c0.624,1.056 1.656,1.584 3.096,1.584Z" style="fill:#0d47a1;"/><path d="M758.265,216.409c-4.992,0 -8.808,-1.152 -11.448,-3.456c-2.64,-2.304 -3.96,-4.896 -3.96,-7.776c0,-2.496 0.912,-4.656 2.736,-6.48c1.824,-1.824 4.512,-2.736 8.064,-2.736c1.248,0 2.712,0.12 4.392,0.36c1.68,0.24 2.952,0.408 3.816,0.504c-0.096,-2.496 -0.648,-4.848 -1.656,-7.056c-1.008,-2.208 -2.28,-4.344 -3.816,-6.408c-1.536,-2.064 -2.976,-3.864 -4.32,-5.4c-2.976,5.664 -5.928,10.368 -8.856,14.112c-2.928,3.744 -6.12,7.296 -9.576,10.656c-1.728,1.728 -3.552,2.592 -5.472,2.592c-1.536,0 -2.784,-0.552 -3.744,-1.656c-0.96,-1.104 -1.44,-2.472 -1.44,-4.104c0,-1.92 0.672,-3.696 2.016,-5.328l1.872,-2.304c5.28,-6.528 9.264,-11.904 11.952,-16.128c1.728,-2.784 3.48,-6.096 5.256,-9.936c1.776,-3.84 4.104,-9.072 6.984,-15.696c1.824,-4.224 5.616,-6.336 11.376,-6.336c2.688,0 4.56,0.24 5.616,0.72c1.056,0.48 1.584,1.248 1.584,2.304c0,0.576 -0.192,1.488 -0.576,2.736c-0.384,1.248 -0.912,2.496 -1.584,3.744c-1.728,3.456 -2.592,6.384 -2.592,8.784c0,1.44 0.504,3.024 1.512,4.752c1.008,1.728 2.568,3.888 4.68,6.48c3.072,4.032 5.4,7.464 6.984,10.296c1.584,2.832 2.376,5.928 2.376,9.288c0,4.032 -0.936,7.848 -2.808,11.448c-1.872,3.6 -4.488,6.504 -7.848,8.712c-3.36,2.208 -7.2,3.312 -11.52,3.312Z" style="fill:#0d47a1;"/><text x="60.585px" y="212.521px" style="font-family:'Pacifico-Regular', 'Pacifico';font-size:144px;fill:#0d47a1;">H<tspan x="205.017px 261.609px 386.313px " y="212.521px 212.521px 212.521px ">er </tspan>Son</text></svg>