<?xml version="1.0" encoding="UTF-8" standalone="no"?><!DOCTYPE svg PUBLIC "-//W3C//DTD SVG 1.1//EN" "http://www.w3.org/Graphics/SVG/1.1/DTD/svg11.dtd"><svg width="100%" height="100%" viewBox="0 0 1191 842" version="1.1" xmlns="http://www.w3.org/2000/svg" xmlns:xlink="http://www.w3.org/1999/xlink" xml:space="preserve" xmlns:serif="http://www.serif.com/" style="fill-rule:evenodd;clip-rule:evenodd;stroke-linecap:round;stroke-linejoin:round;stroke-miterlimit:1.5;"><g transform="matrix(0.999977,0.0067332,-0.0067332,0.999977,2.59537,0.295743)"><path d="M561.627,719.149c1.248,0 2.232,0.576 2.952,1.728c0.72,1.152 1.08,2.736 1.08,4.752c0,3.456 -0.816,6.432 -2.448,8.928c-2.688,4.128 -6.216,7.344 -10.584,9.648c-4.368,2.304 -9.576,3.456 -15.624,3.456c-9.216,0 -16.368,-2.76 -21.456,-8.28c-5.088,-5.52 -7.632,-12.984 -7.632,-22.392c0,-6.624 1.392,-12.792 4.176,-18.504c2.784,-5.712 6.648,-10.248 11.592,-13.608c4.944,-3.36 10.536,-5.04 16.776,-5.04c5.568,0 10.032,1.656 13.392,4.968c3.36,3.312 5.04,7.8 5.04,13.464c0,6.624 -2.376,12.312 -7.128,17.064c-4.752,4.752 -12.84,8.52 -24.264,11.304c2.304,4.416 6.192,6.624 11.664,6.624c3.936,0 7.176,-0.912 9.72,-2.736c2.544,-1.824 5.496,-4.896 8.856,-9.216c1.152,-1.44 2.448,-2.16 3.888,-2.16Zm-23.616,-25.2c-3.552,0 -6.552,2.064 -9,6.192c-2.448,4.128 -3.672,9.12 -3.672,14.976l0,0.288c5.664,-1.344 10.128,-3.36 13.392,-6.048c3.264,-2.688 4.896,-5.808 4.896,-9.36c0,-1.824 -0.504,-3.288 -1.512,-4.392c-1.008,-1.104 -2.376,-1.656 -4.104,-1.656Z" style="fill:#0d47a1;"/><path d="M892.395,684.589c2.4,0 4.104,0.36 5.112,1.08c1.008,0.72 1.512,2.136 1.512,4.248c0,1.152 -0.048,2.064 -0.144,2.736c-0.384,2.976 -1.584,10.656 -3.6,23.04c-1.44,8.352 -2.352,13.872 -2.736,16.56c-3.648,24.768 -8.568,44.328 -14.76,58.68c-6.192,14.352 -14.472,21.528 -24.84,21.528c-4.896,0 -8.88,-1.512 -11.952,-4.536c-3.072,-3.024 -4.608,-6.984 -4.608,-11.88c0,-6.816 2.688,-14.136 8.064,-21.96c5.376,-7.824 15.456,-17.448 30.24,-28.872l0.864,-5.616c-1.632,2.592 -3.768,4.584 -6.408,5.976c-2.64,1.392 -5.256,2.088 -7.848,2.088c-5.952,0 -10.704,-2.16 -14.256,-6.48c-3.552,-4.32 -5.328,-9.984 -5.328,-16.992c0,-7.68 1.776,-14.952 5.328,-21.816c3.552,-6.864 8.28,-12.384 14.184,-16.56c5.904,-4.176 12.168,-6.264 18.792,-6.264c2.112,0 3.528,0.408 4.248,1.224c0.72,0.816 1.32,2.28 1.8,4.392c1.824,-0.384 3.936,-0.576 6.336,-0.576Zm-25.92,48.528c2.208,0 4.32,-1.344 6.336,-4.032c2.016,-2.688 3.456,-6.528 4.32,-11.52l4.608,-24.624c-3.936,0.096 -7.584,1.608 -10.944,4.536c-3.36,2.928 -6.048,6.792 -8.064,11.592c-2.016,4.8 -3.024,9.888 -3.024,15.264c0,2.976 0.6,5.184 1.8,6.624c1.2,1.44 2.856,2.16 4.968,2.16Zm-11.952,65.376c2.4,0 5.112,-2.88 8.136,-8.64c3.024,-5.76 5.928,-14.928 8.712,-27.504c-7.392,6.336 -12.72,12.048 -15.984,17.136c-3.264,5.088 -4.896,9.552 -4.896,13.392c0,1.632 0.312,2.976 0.936,4.032c0.624,1.056 1.656,1.584 3.096,1.584Z" style="fill:#0d47a1;"/><path d="M934.299,750.829c-4.992,0 -8.808,-1.152 -11.448,-3.456c-2.64,-2.304 -3.96,-4.896 -3.96,-7.776c0,-2.496 0.912,-4.656 2.736,-6.48c1.824,-1.824 4.512,-2.736 8.064,-2.736c1.248,0 2.712,0.12 4.392,0.36c1.68,0.24 2.952,0.408 3.816,0.504c-0.096,-2.496 -0.648,-4.848 -1.656,-7.056c-1.008,-2.208 -2.28,-4.344 -3.816,-6.408c-1.536,-2.064 -2.976,-3.864 -4.32,-5.4c-2.976,5.664 -5.928,10.368 -8.856,14.112c-2.928,3.744 -6.12,7.296 -9.576,10.656c-1.728,1.728 -3.552,2.592 -5.472,2.592c-1.536,0 -2.784,-0.552 -3.744,-1.656c-0.96,-1.104 -1.44,-2.472 -1.44,-4.104c0,-1.92 0.672,-3.696 2.016,-5.328l1.872,-2.304c5.28,-6.528 9.264,-11.904 11.952,-16.128c1.728,-2.784 3.48,-6.096 5.256,-9.936c1.776,-3.84 4.104,-9.072 6.984,-15.696c1.824,-4.224 5.616,-6.336 11.376,-6.336c2.688,0 4.56,0.24 5.616,0.72c1.056,0.48 1.584,1.248 1.584,2.304c0,0.576 -0.192,1.488 -0.576,2.736c-0.384,1.248 -0.912,2.496 -1.584,3.744c-1.728,3.456 -2.592,6.384 -2.592,8.784c0,1.44 0.504,3.024 1.512,4.752c1.008,1.728 2.568,3.888 4.68,6.48c3.072,4.032 5.4,7.464 6.984,10.296c1.584,2.832 2.376,5.928 2.376,9.288c0,4.032 -0.936,7.848 -2.808,11.448c-1.872,3.6 -4.488,6.504 -7.848,8.712c-3.36,2.208 -7.2,3.312 -11.52,3.312Z" style="fill:#0d47a1;"/><text x="236.619px" y="746.941px" style="font-family:'Pacifico-Regular', 'Pacifico';font-size:144px;fill:#0d47a1;">H<tspan x="381.051px 437.643px 562.347px " y="746.941px 746.941px 746.941px ">er </tspan>Son</text></g><g transform="matrix(0.999977,0.0067332,-0.0067332,0.999977,1.56094,0.292261)"><path d="M499.347,532.399c0.704,0 1.304,0.248 1.8,0.744c0.496,0.496 0.744,1.112 0.744,1.848c0,0.416 -0.096,0.864 -0.288,1.344c-0.512,1.184 -1.232,2.176 -2.16,2.976c-0.928,0.8 -1.952,1.2 -3.072,1.2c-0.896,0 -1.656,-0.32 -2.28,-0.96c-0.624,-0.64 -0.936,-1.504 -0.936,-2.592c0,-0.608 0.032,-1.264 0.096,-1.968c0.064,-0.512 0.096,-0.864 0.096,-1.056c0,-0.256 -0.056,-0.448 -0.168,-0.576c-0.112,-0.128 -0.248,-0.192 -0.408,-0.192c-0.448,0 -1.056,0.536 -1.824,1.608c-0.768,1.072 -1.536,2.488 -2.304,4.248c-0.768,1.76 -1.392,3.616 -1.872,5.568c-0.352,1.536 -0.752,2.56 -1.2,3.072c-0.448,0.512 -1.184,0.768 -2.208,0.768c-1.216,0 -2.072,-0.64 -2.568,-1.92c-0.496,-1.28 -0.744,-3.328 -0.744,-6.144c0,-4.16 0.592,-8.112 1.776,-11.856c0.288,-0.928 0.76,-1.608 1.416,-2.04c0.656,-0.432 1.576,-0.648 2.76,-0.648c0.64,0 1.088,0.08 1.344,0.24c0.256,0.16 0.384,0.464 0.384,0.912c0,0.512 -0.24,1.664 -0.72,3.456c-0.32,1.28 -0.576,2.4 -0.768,3.36c-0.192,0.96 -0.352,2.144 -0.48,3.552c1.056,-2.752 2.24,-4.992 3.552,-6.72c1.312,-1.728 2.592,-2.96 3.84,-3.696c1.248,-0.736 2.384,-1.104 3.408,-1.104c0.928,0 1.64,0.264 2.136,0.792c0.496,0.528 0.744,1.304 0.744,2.328c0,0.608 -0.176,1.76 -0.528,3.456l0.432,0Z" style="fill:#0d47a1;"/><path d="M605.187,548.431c-3.04,0 -5.416,-0.888 -7.128,-2.664c-1.712,-1.776 -2.568,-4.12 -2.568,-7.032c0,-2.592 0.512,-4.864 1.536,-6.816c1.024,-1.952 2.352,-3.456 3.984,-4.512c1.632,-1.056 3.344,-1.584 5.136,-1.584c1.76,0 3.128,0.52 4.104,1.56c0.976,1.04 1.464,2.376 1.464,4.008c0,1.344 -0.296,2.48 -0.888,3.408c-0.592,0.928 -1.368,1.392 -2.328,1.392c-0.608,0 -1.096,-0.144 -1.464,-0.432c-0.368,-0.288 -0.552,-0.688 -0.552,-1.2c0,-0.224 0.032,-0.48 0.096,-0.768c0.064,-0.288 0.112,-0.496 0.144,-0.624c0.16,-0.48 0.24,-0.928 0.24,-1.344c0,-0.416 -0.104,-0.736 -0.312,-0.96c-0.208,-0.224 -0.504,-0.336 -0.888,-0.336c-0.736,0 -1.424,0.328 -2.064,0.984c-0.64,0.656 -1.152,1.544 -1.536,2.664c-0.384,1.12 -0.576,2.352 -0.576,3.696c0,1.824 0.376,3.208 1.128,4.152c0.752,0.944 1.816,1.416 3.192,1.416c1.088,0 2.088,-0.32 3,-0.96c0.912,-0.64 1.816,-1.584 2.712,-2.832c0.384,-0.48 0.816,-0.72 1.296,-0.72c0.416,0 0.744,0.192 0.984,0.576c0.24,0.384 0.36,0.912 0.36,1.584c0,1.152 -0.272,2.144 -0.816,2.976c-0.864,1.344 -2,2.408 -3.408,3.192c-1.408,0.784 -3.024,1.176 -4.848,1.176Z" style="fill:#0d47a1;"/><path d="M709.635,525.823c1.024,0 1.8,0.264 2.328,0.792c0.528,0.528 0.792,1.304 0.792,2.328c0,0.832 -0.176,2.4 -0.528,4.704c-0.32,1.952 -0.576,3.8 -0.768,5.544c-0.192,1.744 -0.288,3.688 -0.288,5.832c0,1.216 -0.248,2.088 -0.744,2.616c-0.496,0.528 -1.304,0.792 -2.424,0.792c-1.056,0 -1.824,-0.272 -2.304,-0.816c-0.48,-0.544 -0.72,-1.36 -0.72,-2.448c0,-1.28 0.224,-3.392 0.672,-6.336c0.384,-2.56 0.576,-4.192 0.576,-4.896c0,-0.512 -0.176,-0.768 -0.528,-0.768c-0.416,0 -1.008,0.536 -1.776,1.608c-0.768,1.072 -1.536,2.488 -2.304,4.248c-0.768,1.76 -1.392,3.616 -1.872,5.568c-0.352,1.504 -0.76,2.52 -1.224,3.048c-0.464,0.528 -1.192,0.792 -2.184,0.792c-0.992,0 -1.72,-0.36 -2.184,-1.08c-0.464,-0.72 -0.776,-1.832 -0.936,-3.336c-0.16,-1.504 -0.24,-3.712 -0.24,-6.624c0,-4.928 0.504,-10.064 1.512,-15.408c1.008,-5.344 2.496,-9.832 4.464,-13.464c1.968,-3.632 4.328,-5.448 7.08,-5.448c1.472,0 2.664,0.632 3.576,1.896c0.912,1.264 1.368,2.904 1.368,4.92c0,3.232 -0.944,6.584 -2.832,10.056c-1.888,3.472 -4.96,7.528 -9.216,12.168c-0.096,1.664 -0.144,3.376 -0.144,5.136c1.056,-2.72 2.232,-4.936 3.528,-6.648c1.296,-1.712 2.576,-2.936 3.84,-3.672c1.264,-0.736 2.424,-1.104 3.48,-1.104Zm-4.608,-18c-0.576,0 -1.216,0.824 -1.92,2.472c-0.704,1.648 -1.384,3.872 -2.04,6.672c-0.656,2.8 -1.192,5.848 -1.608,9.144c1.984,-2.336 3.624,-4.88 4.92,-7.632c1.296,-2.752 1.944,-5.248 1.944,-7.488c0,-1.024 -0.112,-1.808 -0.336,-2.352c-0.224,-0.544 -0.544,-0.816 -0.96,-0.816Z" style="fill:#0d47a1;"/><path d="M778.515,548.431c-1.504,0 -2.712,-0.616 -3.624,-1.848c-0.912,-1.232 -1.368,-2.936 -1.368,-5.112c0,-2.4 0.16,-4.6 0.48,-6.6c0.32,-2 0.848,-4.12 1.584,-6.36c0.32,-0.96 0.768,-1.648 1.344,-2.064c0.576,-0.416 1.488,-0.624 2.736,-0.624c0.704,0 1.192,0.112 1.464,0.336c0.272,0.224 0.408,0.56 0.408,1.008c0,0.256 -0.176,1.12 -0.528,2.592c-0.32,1.184 -0.576,2.256 -0.768,3.216c-0.64,3.36 -0.96,5.6 -0.96,6.72c0,0.672 0.08,1.144 0.24,1.416c0.16,0.272 0.416,0.408 0.768,0.408c0.48,0 1.088,-0.488 1.824,-1.464c0.736,-0.976 1.512,-2.448 2.328,-4.416c0.816,-1.968 1.592,-4.344 2.328,-7.128c0.256,-0.96 0.648,-1.648 1.176,-2.064c0.528,-0.416 1.32,-0.624 2.376,-0.624c0.704,0 1.208,0.184 1.512,0.552c0.304,0.368 0.456,0.92 0.456,1.656c0,0.8 -0.064,1.688 -0.192,2.664c-0.128,0.976 -0.272,1.976 -0.432,3c-0.32,2.048 -0.576,3.912 -0.768,5.592c-0.192,1.68 -0.288,3.592 -0.288,5.736c0,1.216 -0.248,2.088 -0.744,2.616c-0.496,0.528 -1.304,0.792 -2.424,0.792c-1.184,0 -2.008,-0.312 -2.472,-0.936c-0.464,-0.624 -0.696,-1.832 -0.696,-3.624c0,-0.352 0.032,-1.136 0.096,-2.352c-0.544,2.24 -1.352,3.952 -2.424,5.136c-1.072,1.184 -2.216,1.776 -3.432,1.776Z" style="fill:#0d47a1;"/><text x="388.323px" y="548.191px" style="font-family:'Pacifico-Regular', 'Pacifico';font-size:48px;fill:#0d47a1;">H<tspan x="436.467px 455.091px 501.411px " y="548.191px 548.191px 548.191px ">ea </tspan>misi<tspan x="613.347px " y="548.191px "> </tspan>wit<tspan x="713.859px " y="548.191px "> </tspan>yo<tspan x="793.299px " y="548.191px ">.</tspan></text></g><g><path d="M167.39,386.91c4.678,0 49.695,-48.694 71.175,-54.417c45.533,-12.131 68.941,-4.037 51.887,26.421c-23.022,41.116 -98.135,68.498 -108.01,72.738c-10.154,4.359 -69.931,-30.807 -69.931,-41.857c0,-11.051 15.293,-2.885 54.879,-2.885Z" style="fill:#0d47a1;stroke:#fff9c4;stroke-width:6px;"/><path d="M434.863,136.763c61.333,21.768 102.041,65.043 90.849,96.578c-7.11,20.032 -33.464,30.538 -67.466,29.957c-12.402,-0.212 -43.63,81.292 -106.883,106.665c-36.325,14.57 -100.166,-9.176 -108.327,-12.072c-2.609,-0.926 -76.844,40.387 -82.397,37.215c-2.99,-1.708 -40.409,-25.205 -38.274,-35.723c2.562,-12.623 33.197,8.63 34.671,6.439c13.578,-20.184 63.572,-63.802 73.409,-70.629c19.599,-13.602 31.975,5.276 36.213,-0.972c24.837,-36.621 69.002,-79.095 63.554,-83.101c-24.101,-17.726 -33.268,-38.312 -26.755,-56.662c11.192,-31.535 70.073,-39.464 131.406,-17.695Z" style="fill:#0d47a1;stroke:#fff9c4;stroke-width:6px;"/><path d="M420.023,99.466c41.961,1.873 74.661,34.038 72.976,71.783c-1.684,37.746 -37.119,66.871 -79.08,64.998c-41.961,-1.872 -74.66,-34.037 -72.976,-71.783c1.685,-37.746 37.119,-66.87 79.08,-64.998Z" style="fill:#0d47a1;stroke:#fff9c4;stroke-width:6px;"/><path d="M405.144,151.01c-3.54,9.963 -14.238,15.105 -24.493,12.011c-10.569,-3.19 -16.691,-13.927 -13.502,-24.496c2.601,-8.619 12.357,-9.927 22.926,-6.737c9.832,2.966 16.925,8.786 15.774,16.521c0.958,0.148 2.047,0.395 3.184,0.738c1.137,0.343 2.181,0.739 3.06,1.147c3.32,-7.081 12.449,-8.006 22.28,-5.039c10.569,3.189 17.973,9.675 15.373,18.294c-3.19,10.569 -14.229,16.128 -24.798,12.939c-10.255,-3.095 -16.324,-13.296 -13.761,-23.555c-0.932,-0.149 -1.983,-0.391 -3.079,-0.721c-1.096,-0.331 -2.105,-0.711 -2.964,-1.102Z" style="fill:#fff9c4;stroke:#fff9c4;stroke-width:6px;"/><path d="M384.298,186.227c3.324,3.954 18.321,10.678 32.673,3.914" style="fill:none;stroke:#fff9c4;stroke-width:6px;"/></g><g><path d="M717.866,386.91c4.678,0 49.695,-48.694 71.175,-54.417c45.533,-12.131 68.941,-4.037 51.887,26.421c-23.022,41.116 -98.134,68.498 -108.01,72.738c-10.154,4.359 -69.93,-30.807 -69.93,-41.857c0,-11.051 15.292,-2.885 54.878,-2.885Z" style="fill:#0d47a1;stroke:#fff9c4;stroke-width:6px;"/><path d="M985.34,136.763c61.333,21.768 102.04,65.043 90.848,96.578c-7.11,20.032 -33.464,30.538 -67.466,29.957c-12.402,-0.212 -43.629,81.292 -106.883,106.665c-36.324,14.57 -100.166,-9.176 -108.327,-12.072c-2.609,-0.926 -76.844,40.387 -82.397,37.215c-2.989,-1.708 -40.408,-25.205 -38.274,-35.723c2.562,-12.623 33.197,8.63 34.671,6.439c13.578,-20.184 63.572,-63.802 73.41,-70.629c19.598,-13.602 31.974,5.276 36.212,-0.972c24.838,-36.621 69.002,-79.095 63.554,-83.101c-24.101,-17.726 -33.268,-38.312 -26.755,-56.662c11.192,-31.535 70.074,-39.464 131.407,-17.695Z" style="fill:#0d47a1;stroke:#fff9c4;stroke-width:6px;"/><path d="M970.499,99.466c41.961,1.873 74.661,34.038 72.976,71.783c-1.684,37.746 -37.118,66.871 -79.08,64.998c-41.961,-1.872 -74.66,-34.037 -72.976,-71.783c1.685,-37.746 37.119,-66.87 79.08,-64.998Z" style="fill:#0d47a1;stroke:#fff9c4;stroke-width:6px;"/><path d="M955.62,151.01c-3.54,9.963 -14.238,15.105 -24.493,12.011c-10.569,-3.19 -16.691,-13.927 -13.502,-24.496c2.601,-8.619 12.358,-9.927 22.927,-6.737c9.831,2.966 16.924,8.786 15.773,16.521c0.958,0.148 2.047,0.395 3.184,0.738c1.137,0.343 2.181,0.739 3.061,1.147c3.319,-7.081 12.448,-8.006 22.279,-5.039c10.569,3.189 17.974,9.675 15.373,18.294c-3.19,10.569 -14.229,16.128 -24.798,12.939c-10.255,-3.095 -16.323,-13.296 -13.761,-23.555c-0.932,-0.149 -1.983,-0.391 -3.079,-0.721c-1.095,-0.331 -2.105,-0.711 -2.964,-1.102Z" style="fill:#fff9c4;stroke:#fff9c4;stroke-width:6px;"/><path d="M934.774,186.227c3.324,3.954 18.322,10.678 32.673,3.914" style="fill:none;stroke:#fff9c4;stroke-width:6px;"/></g><g><path d="M442.722,386.91c4.678,0 49.695,-48.694 71.175,-54.417c45.533,-12.131 68.941,-4.037 51.887,26.421c-23.022,41.116 -98.134,68.498 -108.01,72.738c-10.154,4.359 -69.93,-30.807 -69.93,-41.857c0,-11.051 15.292,-2.885 54.878,-2.885Z" style="fill:#0d47a1;stroke:#fff9c4;stroke-width:6px;"/><path d="M710.196,136.763c61.333,21.768 53.896,74.109 37.408,99.57c-0.697,1.077 -16.792,27.795 -18.492,29.369c-14.737,13.643 -45.705,81.512 -102.417,104.261c-36.324,14.57 -100.166,-9.176 -108.327,-12.072c-2.609,-0.926 -76.844,40.387 -82.397,37.215c-2.989,-1.708 -40.408,-25.205 -38.274,-35.723c2.562,-12.623 33.197,8.63 34.671,6.439c13.578,-20.184 63.572,-63.802 73.41,-70.629c19.598,-13.602 31.974,5.276 36.212,-0.972c24.838,-36.621 69.002,-79.095 63.554,-83.101c-24.101,-17.726 -33.268,-38.312 -26.755,-56.662c11.192,-31.535 70.074,-39.464 131.407,-17.695Z" style="fill:#0d47a1;stroke:#fff9c4;stroke-width:6px;"/><path d="M695.355,99.466c41.961,1.873 74.661,34.038 72.976,71.783c-1.684,37.746 -37.118,66.871 -79.079,64.998c-41.961,-1.872 -74.661,-34.037 -72.977,-71.783c1.685,-37.746 37.119,-66.87 79.08,-64.998Z" style="fill:#0d47a1;stroke:#fff9c4;stroke-width:6px;"/><path d="M680.476,151.01c-3.54,9.963 -14.238,15.105 -24.493,12.011c-10.569,-3.19 -16.691,-13.927 -13.502,-24.496c2.601,-8.619 12.358,-9.927 22.927,-6.737c9.831,2.966 16.924,8.786 15.773,16.521c0.958,0.148 2.047,0.395 3.184,0.738c1.137,0.343 2.181,0.739 3.061,1.147c3.319,-7.081 12.448,-8.006 22.279,-5.039c10.569,3.189 17.974,9.675 15.373,18.294c-3.19,10.569 -14.229,16.128 -24.798,12.939c-10.255,-3.095 -16.323,-13.296 -13.761,-23.555c-0.932,-0.149 -1.983,-0.391 -3.079,-0.721c-1.095,-0.331 -2.105,-0.711 -2.964,-1.102Z" style="fill:#fff9c4;stroke:#fff9c4;stroke-width:6px;"/></g><path d="M650.289,205.344c-0.568,-4.748 -4.884,-8.143 -9.633,-7.576l-17.209,2.057c-4.748,0.567 -8.143,4.883 -7.576,9.632l4.393,36.76c0.568,4.749 4.884,8.144 9.633,7.577l17.208,-2.057c4.749,-0.567 8.144,-4.883 7.576,-9.632l-4.392,-36.761Z" style="fill:#0d47a1;stroke:#fff9c4;stroke-width:6px;"/><path d="M752.935,214.971c14.018,11.835 19.124,91.35 -37.418,93.064c-39.275,1.191 -91.072,-42.357 -78.249,-58.294c12.98,-16.133 72.102,17.585 76.641,19.994" style="fill:#0d47a1;stroke:#fff9c4;stroke-width:6px;"/><path d="M228.697,165.183c6.501,1.558 23.205,16.754 25.163,21.143c1.003,2.249 -4.377,13.615 -4.287,16.076c0.214,5.809 10.827,15.799 9.252,16.744c-1.574,0.944 -16.227,-10.293 -17.796,-12.635c-1.315,-1.964 -0.111,-11.03 -0.686,-13.322c-0.696,-2.777 -12.735,-12.329 -12.735,-12.329l-10.343,47.469c-0.007,0.029 -0.014,0.059 -0.021,0.088c-0.015,0.074 -0.03,0.147 -0.046,0.22c-2.178,9.994 -14.934,15.714 -28.467,12.765c-13.534,-2.949 -22.754,-13.457 -20.576,-23.451c2.177,-9.994 14.933,-15.714 28.467,-12.765c5.941,1.294 11.051,4.045 14.73,7.57l9.868,-45.012c1.033,-4.633 5.165,-3.116 7.477,-2.561Z" style="fill:#0d47a1;stroke:#0d47a1;stroke-width:6px;"/></svg>