<?xml version="1.0" encoding="UTF-8" standalone="no"?><!DOCTYPE svg PUBLIC "-//W3C//DTD SVG 1.1//EN" "http://www.w3.org/Graphics/SVG/1.1/DTD/svg11.dtd"><svg width="100%" height="100%" viewBox="0 0 842 298" version="1.1" xmlns="http://www.w3.org/2000/svg" xmlns:xlink="http://www.w3.org/1999/xlink" xml:space="preserve" xmlns:serif="http://www.serif.com/" style="fill-rule:evenodd;clip-rule:evenodd;stroke-linejoin:round;stroke-miterlimit:2;"><g><path d="M200.841,180.409c1.248,0 2.232,0.576 2.952,1.728c0.72,1.152 1.08,2.736 1.08,4.752c0,3.744 -0.912,6.72 -2.736,8.928c-9.504,11.616 -19.632,17.424 -30.384,17.424c-9.312,0 -16.752,-3.6 -22.32,-10.8c-5.568,-7.2 -8.352,-17.52 -8.352,-30.96c0,-3.264 0.144,-6.528 0.432,-9.792c-6.336,1.152 -13.248,2.016 -20.736,2.592c-4.992,0.384 -8.4,0.624 -10.224,0.72c-1.92,9.792 -4.608,21.792 -8.064,36c-2.016,8.352 -5.856,12.528 -11.52,12.528c-6.144,0 -9.216,-2.784 -9.216,-8.352c0,-1.248 0.24,-2.976 0.72,-5.184c3.264,-13.152 5.856,-24.288 7.776,-33.408l-6.912,0.288c-3.168,0 -5.472,-0.552 -6.912,-1.656c-1.44,-1.104 -2.16,-2.904 -2.16,-5.4c0,-3.168 0.912,-5.496 2.736,-6.984c1.824,-1.488 4.848,-2.328 9.072,-2.52l7.632,-0.288c2.496,-13.536 3.744,-23.856 3.744,-30.96c0,-4.512 -0.672,-7.584 -2.016,-9.216c-1.344,-1.632 -3.12,-2.448 -5.328,-2.448c-6.72,0 -14.304,5.616 -22.752,16.848c-1.248,1.632 -2.64,2.448 -4.176,2.448c-1.344,0 -2.496,-0.624 -3.456,-1.872c-0.96,-1.248 -1.44,-2.832 -1.44,-4.752c0,-2.976 1.2,-6.144 3.6,-9.504c4.224,-5.856 9.552,-10.68 15.984,-14.472c6.432,-3.792 12.96,-5.688 19.584,-5.688c6.24,0 11.064,2.136 14.472,6.408c3.408,4.272 5.112,10.92 5.112,19.944c0,7.968 -1.152,18.768 -3.456,32.4l14.112,-0.72c6.048,-0.288 11.232,-0.768 15.552,-1.44c1.728,-10.56 4.368,-20.448 7.92,-29.664c3.552,-9.216 7.968,-16.704 13.248,-22.464c5.28,-5.76 11.184,-8.64 17.712,-8.64c4.8,0 8.592,1.896 11.376,5.688c2.784,3.792 4.176,8.76 4.176,14.904c0,23.808 -12.144,40.32 -36.432,49.536c-0.288,3.84 -0.432,7.824 -0.432,11.952c0,10.08 1.248,17.232 3.744,21.456c2.496,4.224 6,6.336 10.512,6.336c3.936,0 7.536,-1.032 10.8,-3.096c3.264,-2.064 6.96,-5.592 11.088,-10.584c1.152,-1.344 2.448,-2.016 3.888,-2.016Zm-19.44,-81.648c-2.112,0 -4.344,1.92 -6.696,5.76c-2.352,3.84 -4.584,9.072 -6.696,15.696c-2.112,6.624 -3.792,13.872 -5.04,21.744c7.68,-3.168 13.344,-7.68 16.992,-13.536c3.648,-5.856 5.472,-13.392 5.472,-22.608c0,-2.208 -0.384,-3.936 -1.152,-5.184c-0.768,-1.248 -1.728,-1.872 -2.88,-1.872Z" style="fill:#0d47a1;fill-rule:nonzero;"/><path d="M276.153,180.409c1.248,0 2.232,0.576 2.952,1.728c0.72,1.152 1.08,2.736 1.08,4.752c0,3.84 -0.912,6.816 -2.736,8.928c-3.552,4.32 -8.568,8.304 -15.048,11.952c-6.48,3.648 -13.416,5.472 -20.808,5.472c-10.08,0 -17.904,-2.736 -23.472,-8.208c-5.568,-5.472 -8.352,-12.96 -8.352,-22.464c0,-6.624 1.392,-12.792 4.176,-18.504c2.784,-5.712 6.648,-10.248 11.592,-13.608c4.944,-3.36 10.536,-5.04 16.776,-5.04c5.568,0 10.032,1.656 13.392,4.968c3.36,3.312 5.04,7.8 5.04,13.464c0,6.624 -2.376,12.312 -7.128,17.064c-4.752,4.752 -12.792,8.52 -24.12,11.304c2.4,4.416 6.96,6.624 13.68,6.624c4.32,0 9.24,-1.512 14.76,-4.536c5.52,-3.024 10.296,-6.984 14.328,-11.88c1.152,-1.344 2.448,-2.016 3.888,-2.016Zm-36.288,-20.88c-3.552,0 -6.552,2.064 -9,6.192c-2.448,4.128 -3.672,9.12 -3.672,14.976l0,0.288c5.664,-1.344 10.128,-3.36 13.392,-6.048c3.264,-2.688 4.896,-5.808 4.896,-9.36c0,-1.824 -0.504,-3.288 -1.512,-4.392c-1.008,-1.104 -2.376,-1.656 -4.104,-1.656Z" style="fill:#0d47a1;fill-rule:nonzero;"/><path d="M278.745,213.241c-3.648,0 -6.216,-1.92 -7.704,-5.76c-1.488,-3.84 -2.232,-9.984 -2.232,-18.432c0,-12.48 1.776,-24.336 5.328,-35.568c0.864,-2.784 2.28,-4.824 4.248,-6.12c1.968,-1.296 4.728,-1.944 8.28,-1.944c1.92,0 3.264,0.24 4.032,0.72c0.768,0.48 1.152,1.392 1.152,2.736c0,1.536 -0.72,4.992 -2.16,10.368c-0.96,3.84 -1.728,7.2 -2.304,10.08c-0.576,2.88 -1.056,6.432 -1.44,10.656c3.168,-8.256 6.72,-14.976 10.656,-20.16c3.936,-5.184 7.8,-8.88 11.592,-11.088c3.792,-2.208 7.272,-3.312 10.44,-3.312c6.24,0 9.36,3.12 9.36,9.36c0,1.248 -0.432,4.272 -1.296,9.072c-0.768,3.84 -1.152,6.24 -1.152,7.2c0,3.36 1.2,5.04 3.6,5.04c2.688,0 6.144,-2.112 10.368,-6.336c1.248,-1.248 2.544,-1.872 3.888,-1.872c1.248,0 2.232,0.552 2.952,1.656c0.72,1.104 1.08,2.568 1.08,4.392c0,3.552 -0.96,6.336 -2.88,8.352c-2.688,2.784 -5.832,5.16 -9.432,7.128c-3.6,1.968 -7.416,2.952 -11.448,2.952c-5.088,0 -8.952,-1.296 -11.592,-3.888c-2.64,-2.592 -3.96,-6.096 -3.96,-10.512c0,-1.44 0.144,-2.88 0.432,-4.32c0.192,-1.92 0.288,-3.216 0.288,-3.888c0,-1.536 -0.528,-2.304 -1.584,-2.304c-1.44,0 -3.336,1.608 -5.688,4.824c-2.352,3.216 -4.68,7.464 -6.984,12.744c-2.304,5.28 -4.176,10.848 -5.616,16.704c-1.056,4.512 -2.28,7.56 -3.672,9.144c-1.392,1.584 -3.576,2.376 -6.552,2.376Z" style="fill:#0d47a1;fill-rule:nonzero;"/><path d="M385.593,184.729c1.248,0 2.232,0.576 2.952,1.728c0.72,1.152 1.08,2.736 1.08,4.752c0,3.456 -0.816,6.432 -2.448,8.928c-2.688,4.128 -6.216,7.344 -10.584,9.648c-4.368,2.304 -9.576,3.456 -15.624,3.456c-9.216,0 -16.368,-2.76 -21.456,-8.28c-5.088,-5.52 -7.632,-12.984 -7.632,-22.392c0,-6.624 1.392,-12.792 4.176,-18.504c2.784,-5.712 6.648,-10.248 11.592,-13.608c4.944,-3.36 10.536,-5.04 16.776,-5.04c5.568,0 10.032,1.656 13.392,4.968c3.36,3.312 5.04,7.8 5.04,13.464c0,6.624 -2.376,12.312 -7.128,17.064c-4.752,4.752 -12.84,8.52 -24.264,11.304c2.304,4.416 6.192,6.624 11.664,6.624c3.936,0 7.176,-0.912 9.72,-2.736c2.544,-1.824 5.496,-4.896 8.856,-9.216c1.152,-1.44 2.448,-2.16 3.888,-2.16Zm-23.616,-25.2c-3.552,0 -6.552,2.064 -9,6.192c-2.448,4.128 -3.672,9.12 -3.672,14.976l0,0.288c5.664,-1.344 10.128,-3.36 13.392,-6.048c3.264,-2.688 4.896,-5.808 4.896,-9.36c0,-1.824 -0.504,-3.288 -1.512,-4.392c-1.008,-1.104 -2.376,-1.656 -4.104,-1.656Z" style="fill:#0d47a1;fill-rule:nonzero;"/><path d="M471.561,213.673c-12.768,0 -22.992,-2.424 -30.672,-7.272c-7.68,-4.848 -11.52,-12.264 -11.52,-22.248c0,-5.28 0.912,-9.312 2.736,-12.096c1.824,-2.784 4.512,-4.176 8.064,-4.176c2.592,0 4.704,0.672 6.336,2.016c1.632,1.344 2.448,3.072 2.448,5.184c0,1.92 -0.144,3.6 -0.432,5.04c0,0.384 -0.072,1.056 -0.216,2.016c-0.144,0.96 -0.216,1.968 -0.216,3.024c0,4.32 2.184,7.536 6.552,9.648c4.368,2.112 10.488,3.168 18.36,3.168c8.16,0 14.544,-1.464 19.152,-4.392c4.608,-2.928 6.912,-7.032 6.912,-12.312c0,-3.264 -1.056,-6.072 -3.168,-8.424c-2.112,-2.352 -4.752,-4.32 -7.92,-5.904c-3.168,-1.584 -7.632,-3.528 -13.392,-5.832c-7.392,-2.88 -13.416,-5.616 -18.072,-8.208c-4.656,-2.592 -8.64,-6.12 -11.952,-10.584c-3.312,-4.464 -4.968,-10.008 -4.968,-16.632c0,-6.912 1.848,-13.056 5.544,-18.432c3.696,-5.376 9.024,-9.552 15.984,-12.528c6.96,-2.976 15.144,-4.464 24.552,-4.464c7.008,0 13.44,1.032 19.296,3.096c5.856,2.064 10.536,5.208 14.04,9.432c3.504,4.224 5.256,9.408 5.256,15.552c0,6.048 -0.912,10.608 -2.736,13.68c-1.824,3.072 -4.512,4.608 -8.064,4.608c-2.496,0 -4.584,-0.768 -6.264,-2.304c-1.68,-1.536 -2.52,-3.36 -2.52,-5.472c0,-1.824 0.144,-3.504 0.432,-5.04c0.288,-2.88 0.432,-4.704 0.432,-5.472c0,-4.032 -1.968,-7.104 -5.904,-9.216c-3.936,-2.112 -8.832,-3.168 -14.688,-3.168c-8.256,0 -14.568,1.512 -18.936,4.536c-4.368,3.024 -6.552,7.272 -6.552,12.744c0,3.648 1.128,6.768 3.384,9.36c2.256,2.592 5.064,4.752 8.424,6.48c3.36,1.728 8.064,3.792 14.112,6.192c7.296,2.976 13.152,5.664 17.568,8.064c4.416,2.4 8.184,5.664 11.304,9.792c3.12,4.128 4.68,9.216 4.68,15.264c0,11.328 -4.296,20.04 -12.888,26.136c-8.592,6.096 -20.088,9.144 -34.488,9.144Z" style="fill:#0d47a1;fill-rule:nonzero;"/><path d="M604.617,168.313c1.248,0 2.208,0.624 2.88,1.872c0.672,1.248 1.008,2.832 1.008,4.752c0,4.608 -1.392,7.344 -4.176,8.208c-5.76,2.016 -12.096,3.168 -19.008,3.456c-1.824,8.064 -5.424,14.52 -10.8,19.368c-5.376,4.848 -11.472,7.272 -18.288,7.272c-5.76,0 -10.68,-1.392 -14.76,-4.176c-4.08,-2.784 -7.176,-6.48 -9.288,-11.088c-2.112,-4.608 -3.168,-9.6 -3.168,-14.976c0,-7.296 1.392,-13.8 4.176,-19.512c2.784,-5.712 6.624,-10.176 11.52,-13.392c4.896,-3.216 10.32,-4.824 16.272,-4.824c7.296,0 13.176,2.52 17.64,7.56c4.464,5.04 7.08,11.256 7.848,18.648c4.512,-0.288 9.888,-1.248 16.128,-2.88c0.768,-0.192 1.44,-0.288 2.016,-0.288Zm-47.232,29.664c3.072,0 5.736,-1.248 7.992,-3.744c2.256,-2.496 3.768,-6.096 4.536,-10.8c-2.976,-2.016 -5.256,-4.656 -6.84,-7.92c-1.584,-3.264 -2.376,-6.72 -2.376,-10.368c0,-1.536 0.144,-3.072 0.432,-4.608l-0.72,0c-3.84,0 -7.032,1.848 -9.576,5.544c-2.544,3.696 -3.816,8.904 -3.816,15.624c0,5.28 1.032,9.312 3.096,12.096c2.064,2.784 4.488,4.176 7.272,4.176Z" style="fill:#0d47a1;fill-rule:nonzero;"/><path d="M606.345,213.241c-3.648,0 -6.216,-1.92 -7.704,-5.76c-1.488,-3.84 -2.232,-9.984 -2.232,-18.432c0,-12.48 1.776,-24.336 5.328,-35.568c0.864,-2.784 2.28,-4.824 4.248,-6.12c1.968,-1.296 4.728,-1.944 8.28,-1.944c1.92,0 3.264,0.24 4.032,0.72c0.768,0.48 1.152,1.392 1.152,2.736c0,1.536 -0.72,4.992 -2.16,10.368c-0.96,3.84 -1.728,7.2 -2.304,10.08c-0.576,2.88 -1.056,6.432 -1.44,10.656c3.168,-8.256 6.72,-14.976 10.656,-20.16c3.936,-5.184 7.8,-8.88 11.592,-11.088c3.792,-2.208 7.272,-3.312 10.44,-3.312c6.24,0 9.36,3.12 9.36,9.36c0,3.744 -1.056,10.512 -3.168,20.304c-1.824,8.352 -2.736,13.872 -2.736,16.56c0,3.84 1.392,5.76 4.176,5.76c1.92,0 4.2,-1.176 6.84,-3.528c2.64,-2.352 6.168,-6.168 10.584,-11.448c1.152,-1.344 2.448,-2.016 3.888,-2.016c1.248,0 2.232,0.576 2.952,1.728c0.72,1.152 1.08,2.736 1.08,4.752c0,3.84 -0.912,6.816 -2.736,8.928c-4.128,5.088 -8.568,9.264 -13.32,12.528c-4.752,3.264 -10.152,4.896 -16.2,4.896c-4.896,0 -8.592,-1.416 -11.088,-4.248c-2.496,-2.832 -3.744,-6.936 -3.744,-12.312c0,-2.688 0.672,-7.488 2.016,-14.4c1.248,-6.048 1.872,-10.224 1.872,-12.528c0,-1.536 -0.528,-2.304 -1.584,-2.304c-1.248,0 -3,1.608 -5.256,4.824c-2.256,3.216 -4.56,7.464 -6.912,12.744c-2.352,5.28 -4.248,10.848 -5.688,16.704c-1.056,4.512 -2.28,7.56 -3.672,9.144c-1.392,1.584 -3.576,2.376 -6.552,2.376Z" style="fill:#0d47a1;fill-rule:nonzero;"/><path d="M716.361,150.169c2.4,0 4.104,0.36 5.112,1.08c1.008,0.72 1.512,2.136 1.512,4.248c0,1.152 -0.048,2.064 -0.144,2.736c-0.384,2.976 -1.584,10.656 -3.6,23.04c-1.44,8.352 -2.352,13.872 -2.736,16.56c-3.648,24.768 -8.568,44.328 -14.76,58.68c-6.192,14.352 -14.472,21.528 -24.84,21.528c-4.896,0 -8.88,-1.512 -11.952,-4.536c-3.072,-3.024 -4.608,-6.984 -4.608,-11.88c0,-6.816 2.688,-14.136 8.064,-21.96c5.376,-7.824 15.456,-17.448 30.24,-28.872l0.864,-5.616c-1.632,2.592 -3.768,4.584 -6.408,5.976c-2.64,1.392 -5.256,2.088 -7.848,2.088c-5.952,0 -10.704,-2.16 -14.256,-6.48c-3.552,-4.32 -5.328,-9.984 -5.328,-16.992c0,-7.68 1.776,-14.952 5.328,-21.816c3.552,-6.864 8.28,-12.384 14.184,-16.56c5.904,-4.176 12.168,-6.264 18.792,-6.264c2.112,0 3.528,0.408 4.248,1.224c0.72,0.816 1.32,2.28 1.8,4.392c1.824,-0.384 3.936,-0.576 6.336,-0.576Zm-25.92,48.528c2.208,0 4.32,-1.344 6.336,-4.032c2.016,-2.688 3.456,-6.528 4.32,-11.52l4.608,-24.624c-3.936,0.096 -7.584,1.608 -10.944,4.536c-3.36,2.928 -6.048,6.792 -8.064,11.592c-2.016,4.8 -3.024,9.888 -3.024,15.264c0,2.976 0.6,5.184 1.8,6.624c1.2,1.44 2.856,2.16 4.968,2.16Zm-11.952,65.376c2.4,0 5.112,-2.88 8.136,-8.64c3.024,-5.76 5.928,-14.928 8.712,-27.504c-7.392,6.336 -12.72,12.048 -15.984,17.136c-3.264,5.088 -4.896,9.552 -4.896,13.392c0,1.632 0.312,2.976 0.936,4.032c0.624,1.056 1.656,1.584 3.096,1.584Z" style="fill:#0d47a1;fill-rule:nonzero;"/><path d="M758.265,216.409c-4.992,0 -8.808,-1.152 -11.448,-3.456c-2.64,-2.304 -3.96,-4.896 -3.96,-7.776c0,-2.496 0.912,-4.656 2.736,-6.48c1.824,-1.824 4.512,-2.736 8.064,-2.736c1.248,0 2.712,0.12 4.392,0.36c1.68,0.24 2.952,0.408 3.816,0.504c-0.096,-2.496 -0.648,-4.848 -1.656,-7.056c-1.008,-2.208 -2.28,-4.344 -3.816,-6.408c-1.536,-2.064 -2.976,-3.864 -4.32,-5.4c-2.976,5.664 -5.928,10.368 -8.856,14.112c-2.928,3.744 -6.12,7.296 -9.576,10.656c-1.728,1.728 -3.552,2.592 -5.472,2.592c-1.536,0 -2.784,-0.552 -3.744,-1.656c-0.96,-1.104 -1.44,-2.472 -1.44,-4.104c0,-1.92 0.672,-3.696 2.016,-5.328l1.872,-2.304c5.28,-6.528 9.264,-11.904 11.952,-16.128c1.728,-2.784 3.48,-6.096 5.256,-9.936c1.776,-3.84 4.104,-9.072 6.984,-15.696c1.824,-4.224 5.616,-6.336 11.376,-6.336c2.688,0 4.56,0.24 5.616,0.72c1.056,0.48 1.584,1.248 1.584,2.304c0,0.576 -0.192,1.488 -0.576,2.736c-0.384,1.248 -0.912,2.496 -1.584,3.744c-1.728,3.456 -2.592,6.384 -2.592,8.784c0,1.44 0.504,3.024 1.512,4.752c1.008,1.728 2.568,3.888 4.68,6.48c3.072,4.032 5.4,7.464 6.984,10.296c1.584,2.832 2.376,5.928 2.376,9.288c0,4.032 -0.936,7.848 -2.808,11.448c-1.872,3.6 -4.488,6.504 -7.848,8.712c-3.36,2.208 -7.2,3.312 -11.52,3.312Z" style="fill:#0d47a1;fill-rule:nonzero;"/></g></svg>