<?xml version="1.0" encoding="UTF-8" standalone="no"?><!DOCTYPE svg PUBLIC "-//W3C//DTD SVG 1.1//EN" "http://www.w3.org/Graphics/SVG/1.1/DTD/svg11.dtd"><svg width="100%" height="100%" viewBox="0 0 1191 842" version="1.1" xmlns="http://www.w3.org/2000/svg" xmlns:xlink="http://www.w3.org/1999/xlink" xml:space="preserve" xmlns:serif="http://www.serif.com/" style="fill-rule:evenodd;clip-rule:evenodd;stroke-linecap:round;stroke-linejoin:round;stroke-miterlimit:1.5;"><g><path d="M374.649,717.646c1.248,0.009 2.228,0.591 2.94,1.748c0.712,1.157 1.062,2.743 1.048,4.759c-0.025,3.744 -0.957,6.714 -2.796,8.91c-9.582,11.551 -19.749,17.291 -30.501,17.219c-9.311,-0.063 -16.727,-3.713 -22.246,-10.95c-5.52,-7.238 -8.234,-17.576 -8.144,-31.016c0.022,-3.264 0.188,-6.527 0.498,-9.789c-6.343,1.109 -13.261,1.927 -20.753,2.452c-4.994,0.351 -8.404,0.568 -10.228,0.652c-1.986,9.778 -4.755,21.76 -8.307,35.944c-2.072,8.339 -5.94,12.489 -11.604,12.451c-6.144,-0.042 -9.197,-2.846 -9.159,-8.414c0.008,-1.248 0.26,-2.975 0.755,-5.179c3.352,-13.13 6.019,-24.248 8,-33.355l-6.913,0.241c-3.168,-0.021 -5.469,-0.589 -6.901,-1.702c-1.433,-1.114 -2.141,-2.919 -2.124,-5.415c0.022,-3.168 0.949,-5.489 2.783,-6.965c1.834,-1.476 4.864,-2.295 9.089,-2.459l7.634,-0.237c2.587,-13.518 3.904,-23.83 3.952,-30.934c0.031,-4.512 -0.621,-7.588 -1.954,-9.229c-1.333,-1.641 -3.103,-2.469 -5.311,-2.484c-6.72,-0.045 -14.342,5.52 -22.865,16.695c-1.259,1.623 -2.657,2.43 -4.192,2.419c-1.344,-0.009 -2.492,-0.64 -3.444,-1.895c-0.951,-1.254 -1.421,-2.841 -1.408,-4.761c0.02,-2.976 1.242,-6.136 3.664,-9.48c4.263,-5.827 9.624,-10.615 16.081,-14.364c6.458,-3.749 12.998,-5.601 19.622,-5.556c6.24,0.042 11.049,2.21 14.429,6.505c3.379,4.295 5.038,10.954 4.977,19.978c-0.053,7.968 -1.278,18.76 -3.674,32.376l14.117,-0.625c6.049,-0.247 11.237,-0.692 15.561,-1.335c1.799,-10.548 4.506,-20.418 8.12,-29.61c3.614,-9.192 8.08,-16.65 13.398,-22.374c5.319,-5.725 11.242,-8.565 17.77,-8.521c4.8,0.033 8.579,1.954 11.338,5.765c2.758,3.81 4.117,8.788 4.075,14.931c-0.16,23.808 -12.415,40.238 -36.764,49.29c-0.314,3.838 -0.485,7.821 -0.513,11.949c-0.068,10.08 1.132,17.24 3.6,21.481c2.467,4.24 5.957,6.376 10.469,6.406c3.936,0.027 7.542,-0.981 10.82,-3.023c3.278,-2.042 6.998,-5.545 11.159,-10.509c1.161,-1.336 2.462,-2 3.902,-1.99Zm-18.89,-81.777c-2.112,-0.014 -4.357,1.891 -6.735,5.715c-2.378,3.824 -4.645,9.041 -6.801,15.65c-2.157,6.61 -3.886,13.847 -5.187,21.71c7.702,-3.116 13.396,-7.59 17.083,-13.421c3.688,-5.832 5.562,-13.355 5.624,-22.571c0.015,-2.208 -0.357,-3.938 -1.117,-5.192c-0.759,-1.253 -1.715,-1.883 -2.867,-1.891Z" style="fill:#0d47a1;fill-rule:nonzero;"/><path d="M449.959,718.153c1.248,0.009 2.228,0.591 2.94,1.748c0.713,1.157 1.062,2.743 1.048,4.759c-0.026,3.84 -0.958,6.81 -2.796,8.91c-3.581,4.296 -8.623,8.246 -15.128,11.85c-6.504,3.604 -13.452,5.382 -20.844,5.332c-10.08,-0.068 -17.885,-2.857 -23.416,-8.366c-5.531,-5.509 -8.265,-13.016 -8.201,-22.52c0.045,-6.624 1.478,-12.782 4.3,-18.475c2.823,-5.693 6.717,-10.203 11.684,-13.53c4.966,-3.327 10.57,-4.969 16.809,-4.927c5.568,0.038 10.021,1.724 13.359,5.058c3.337,3.335 4.987,7.834 4.949,13.498c-0.045,6.624 -2.459,12.296 -7.243,17.015c-4.784,4.72 -12.849,8.434 -24.195,11.142c2.37,4.432 6.915,6.671 13.635,6.716c4.32,0.029 9.25,-1.45 14.79,-4.437c5.54,-2.986 10.343,-6.914 14.408,-11.783c1.161,-1.336 2.461,-1.999 3.901,-1.99Zm-36.147,-21.124c-3.551,-0.024 -6.565,2.02 -9.041,6.132c-2.476,4.111 -3.733,9.095 -3.773,14.951l-0.002,0.288c5.673,-1.306 10.151,-3.292 13.433,-5.958c3.282,-2.666 4.935,-5.775 4.959,-9.327c0.012,-1.824 -0.482,-3.291 -1.483,-4.402c-1,-1.111 -2.365,-1.672 -4.093,-1.684Z" style="fill:#0d47a1;fill-rule:nonzero;"/><path d="M452.33,751.002c-3.648,-0.025 -6.203,-1.962 -7.665,-5.812c-1.462,-3.85 -2.165,-9.999 -2.108,-18.446c0.084,-12.48 1.94,-24.324 5.567,-35.532c0.883,-2.778 2.313,-4.808 4.289,-6.091c1.977,-1.283 4.741,-1.912 8.293,-1.888c1.92,0.013 3.263,0.262 4.027,0.747c0.765,0.485 1.143,1.4 1.134,2.744c-0.01,1.536 -0.754,4.987 -2.23,10.353c-0.986,3.833 -1.776,7.188 -2.372,10.064c-0.595,2.876 -1.099,6.425 -1.511,10.646c3.223,-8.234 6.82,-14.93 10.791,-20.088c3.971,-5.157 7.86,-8.827 11.667,-11.009c3.806,-2.183 7.294,-3.263 10.462,-3.242c6.24,0.042 9.338,3.183 9.296,9.423c-0.008,1.248 -0.46,4.269 -1.357,9.063c-0.793,3.835 -1.194,6.232 -1.2,7.192c-0.023,3.36 1.166,5.048 3.566,5.064c2.688,0.018 6.158,-2.07 10.41,-6.266c1.257,-1.239 2.557,-1.855 3.901,-1.846c1.248,0.009 2.228,0.567 2.941,1.676c0.712,1.109 1.062,2.575 1.05,4.399c-0.024,3.552 -1.003,6.33 -2.936,8.333c-2.707,2.766 -5.867,5.12 -9.48,7.064c-3.613,1.944 -7.436,2.902 -11.468,2.875c-5.087,-0.034 -8.943,-1.356 -11.565,-3.966c-2.623,-2.61 -3.919,-6.123 -3.889,-10.538c0.009,-1.44 0.163,-2.879 0.461,-4.317c0.205,-1.919 0.31,-3.214 0.314,-3.886c0.01,-1.536 -0.512,-2.308 -1.568,-2.315c-1.44,-0.01 -3.347,1.585 -5.721,4.786c-2.373,3.2 -4.73,7.432 -7.069,12.696c-2.34,5.265 -4.249,10.82 -5.729,16.666c-1.086,4.505 -2.331,7.545 -3.733,9.119c-1.403,1.575 -3.592,2.352 -6.568,2.332Z" style="fill:#0d47a1;fill-rule:nonzero;"/><path d="M559.367,723.21c1.248,0.008 2.229,0.591 2.941,1.748c0.712,1.157 1.061,2.743 1.048,4.759c-0.024,3.456 -0.86,6.426 -2.508,8.911c-2.716,4.11 -6.266,7.302 -10.649,9.577c-4.383,2.274 -9.599,3.391 -15.647,3.351c-9.216,-0.062 -16.349,-2.871 -21.4,-8.425c-5.05,-5.554 -7.544,-13.035 -7.481,-22.443c0.045,-6.623 1.478,-12.782 4.301,-18.475c2.822,-5.693 6.717,-10.203 11.683,-13.53c4.967,-3.326 10.57,-4.969 16.81,-4.927c5.568,0.038 10.02,1.724 13.358,5.058c3.338,3.335 4.987,7.834 4.949,13.498c-0.044,6.624 -2.459,12.296 -7.243,17.016c-4.784,4.72 -12.897,8.433 -24.339,11.14c2.274,4.431 6.147,6.666 11.619,6.702c3.936,0.027 7.182,-0.863 9.738,-2.67c2.556,-1.807 5.529,-4.859 8.918,-9.156c1.162,-1.432 2.462,-2.144 3.902,-2.134Zm-23.445,-25.358c-3.552,-0.024 -6.566,2.019 -9.042,6.131c-2.476,4.111 -3.733,9.095 -3.773,14.951l-0.002,0.288c5.673,-1.306 10.151,-3.292 13.433,-5.958c3.282,-2.666 4.935,-5.775 4.959,-9.327c0.012,-1.824 -0.482,-3.291 -1.483,-4.402c-1,-1.111 -2.364,-1.672 -4.092,-1.683Z" style="fill:#0d47a1;fill-rule:nonzero;"/><path d="M645.139,752.732c-12.768,-0.086 -22.976,-2.579 -30.623,-7.478c-7.647,-4.9 -11.437,-12.341 -11.37,-22.325c0.036,-5.28 0.975,-9.306 2.818,-12.078c1.842,-2.771 4.54,-4.145 8.092,-4.121c2.592,0.017 4.699,0.704 6.322,2.058c1.623,1.355 2.427,3.089 2.413,5.201c-0.013,1.92 -0.168,3.599 -0.466,5.037c-0.003,0.384 -0.079,1.055 -0.23,2.014c-0.15,0.959 -0.229,1.967 -0.236,3.023c-0.029,4.32 2.133,7.55 6.487,9.692c4.354,2.141 10.466,3.238 18.338,3.291c8.16,0.055 14.554,-1.366 19.181,-4.263c4.628,-2.897 6.96,-6.985 6.995,-12.265c0.022,-3.264 -1.015,-6.079 -3.111,-8.445c-2.096,-2.366 -4.723,-4.352 -7.88,-5.957c-3.157,-1.606 -7.608,-3.58 -13.353,-5.922c-7.372,-2.93 -13.377,-5.706 -18.016,-8.33c-4.638,-2.623 -8.598,-6.178 -11.88,-10.664c-3.282,-4.486 -4.901,-10.041 -4.856,-16.665c0.046,-6.912 1.936,-13.043 5.668,-18.394c3.732,-5.351 9.088,-9.491 16.068,-12.42c6.98,-2.929 15.173,-4.362 24.581,-4.299c7.008,0.047 13.433,1.122 19.275,3.226c5.842,2.103 10.501,5.279 13.976,9.526c3.476,4.248 5.193,9.443 5.151,15.587c-0.04,6.048 -0.983,10.602 -2.828,13.661c-1.844,3.06 -4.543,4.578 -8.095,4.554c-2.496,-0.017 -4.578,-0.799 -6.248,-2.346c-1.67,-1.547 -2.497,-3.377 -2.483,-5.489c0.012,-1.824 0.168,-3.503 0.466,-5.037c0.307,-2.878 0.464,-4.701 0.469,-5.469c0.027,-4.032 -1.92,-7.117 -5.842,-9.255c-3.922,-2.139 -8.811,-3.228 -14.666,-3.267c-8.256,-0.056 -14.578,1.414 -18.967,4.408c-4.388,2.995 -6.6,7.228 -6.637,12.7c-0.025,3.648 1.082,6.775 3.321,9.382c2.238,2.608 5.032,4.786 8.38,6.537c3.348,1.751 8.038,3.846 14.07,6.287c7.276,3.025 13.113,5.752 17.513,8.182c4.4,2.43 8.146,5.719 11.238,9.868c3.092,4.149 4.618,9.247 4.577,15.295c-0.076,11.328 -4.431,20.011 -13.064,26.049c-8.632,6.038 -20.149,9.008 -34.548,8.911Z" style="fill:#0d47a1;fill-rule:nonzero;"/><path d="M778.497,708.269c1.248,0.009 2.204,0.639 2.867,1.891c0.664,1.253 0.989,2.839 0.976,4.759c-0.031,4.608 -1.441,7.335 -4.231,8.18c-5.773,1.977 -12.117,3.086 -19.031,3.328c-1.878,8.051 -5.521,14.483 -10.93,19.295c-5.408,4.811 -11.521,7.194 -18.336,7.148c-5.76,-0.038 -10.671,-1.464 -14.732,-4.275c-4.061,-2.811 -7.132,-6.528 -9.213,-11.15c-2.081,-4.622 -3.103,-9.621 -3.067,-14.997c0.049,-7.296 1.485,-13.791 4.307,-19.484c2.823,-5.693 6.692,-10.131 11.61,-13.314c4.918,-3.183 10.352,-4.754 16.304,-4.714c7.296,0.049 13.159,2.609 17.589,7.678c4.43,5.07 7.004,11.304 7.722,18.701c4.514,-0.258 9.896,-1.182 16.147,-2.771c0.769,-0.187 1.442,-0.279 2.018,-0.275Zm-47.431,29.345c3.072,0.021 5.745,-1.209 8.017,-3.69c2.273,-2.48 3.809,-6.07 4.609,-10.769c-2.962,-2.036 -5.225,-4.691 -6.787,-7.966c-1.561,-3.274 -2.33,-6.736 -2.306,-10.384c0.011,-1.535 0.165,-3.07 0.463,-4.605l-0.72,-0.004c-3.84,-0.026 -7.044,1.8 -9.613,5.479c-2.569,3.679 -3.876,8.878 -3.921,15.598c-0.035,5.28 0.969,9.319 3.015,12.117c2.045,2.797 4.459,4.206 7.243,4.224Z" style="fill:#0d47a1;fill-rule:nonzero;"/><path d="M779.922,753.208c-3.647,-0.025 -6.202,-1.962 -7.665,-5.812c-1.462,-3.85 -2.164,-9.999 -2.107,-18.447c0.084,-12.479 1.939,-24.323 5.567,-35.531c0.883,-2.778 2.312,-4.808 4.289,-6.091c1.977,-1.283 4.741,-1.912 8.293,-1.888c1.92,0.013 3.262,0.262 4.027,0.747c0.765,0.485 1.143,1.399 1.134,2.743c-0.011,1.536 -0.754,4.987 -2.23,10.354c-0.986,3.833 -1.777,7.188 -2.372,10.064c-0.595,2.876 -1.099,6.425 -1.512,10.646c3.224,-8.235 6.821,-14.93 10.792,-20.088c3.971,-5.157 7.859,-8.827 11.666,-11.01c3.807,-2.182 7.294,-3.262 10.462,-3.241c6.24,0.042 9.339,3.183 9.297,9.423c-0.025,3.744 -1.127,10.504 -3.305,20.282c-1.88,8.339 -2.829,13.853 -2.847,16.541c-0.026,3.84 1.353,5.769 4.137,5.788c1.92,0.013 4.208,-1.148 6.864,-3.482c2.655,-2.334 6.209,-6.126 10.66,-11.376c1.162,-1.336 2.462,-2 3.902,-1.99c1.248,0.008 2.228,0.591 2.94,1.748c0.713,1.157 1.062,2.743 1.048,4.759c-0.026,3.84 -0.958,6.81 -2.796,8.909c-4.162,5.06 -8.63,9.206 -13.404,12.438c-4.774,3.232 -10.185,4.828 -16.232,4.787c-4.896,-0.033 -8.583,-1.474 -11.06,-4.322c-2.476,-2.849 -3.697,-6.961 -3.661,-12.337c0.018,-2.688 0.723,-7.484 2.113,-14.386c1.289,-6.04 1.941,-10.212 1.957,-12.516c0.01,-1.536 -0.513,-2.307 -1.569,-2.314c-1.248,-0.009 -3.011,1.588 -5.288,4.788c-2.278,3.201 -4.61,7.433 -6.998,12.698c-2.387,5.264 -4.321,10.819 -5.8,16.665c-1.087,4.505 -2.331,7.544 -3.734,9.119c-1.402,1.575 -3.592,2.352 -6.568,2.332Z" style="fill:#0d47a1;fill-rule:nonzero;"/><path d="M890.361,690.878c2.4,0.016 4.101,0.388 5.104,1.114c1.003,0.727 1.498,2.146 1.484,4.258c-0.008,1.152 -0.062,2.064 -0.163,2.735c-0.404,2.974 -1.655,10.645 -3.755,23.016c-1.496,8.342 -2.445,13.855 -2.847,16.541c-3.815,24.743 -8.867,44.269 -15.155,58.579c-6.289,14.31 -14.617,21.43 -24.984,21.36c-4.896,-0.033 -8.87,-1.571 -11.922,-4.616c-3.051,-3.045 -4.56,-7.015 -4.528,-11.911c0.046,-6.816 2.784,-14.117 8.212,-21.905c5.429,-7.788 15.573,-17.344 30.434,-28.668l0.902,-5.61c-1.65,2.581 -3.799,4.559 -6.448,5.933c-2.65,1.374 -5.27,2.053 -7.862,2.035c-5.952,-0.04 -10.69,-2.232 -14.212,-6.576c-3.523,-4.344 -5.261,-10.019 -5.214,-17.027c0.052,-7.68 1.877,-14.94 5.475,-21.78c3.598,-6.84 8.363,-12.328 14.295,-16.464c5.932,-4.136 12.21,-6.182 18.834,-6.137c2.112,0.014 3.525,0.431 4.24,1.252c0.714,0.821 1.304,2.289 1.77,4.404c1.826,-0.371 3.94,-0.549 6.34,-0.533Zm-26.247,48.352c2.208,0.015 4.329,-1.315 6.364,-3.989c2.034,-2.674 3.499,-6.505 4.397,-11.491l4.774,-24.592c-3.937,0.069 -7.595,1.557 -10.975,4.462c-3.379,2.906 -6.093,6.751 -8.141,11.538c-2.049,4.786 -3.091,9.867 -3.127,15.243c-0.02,2.976 0.565,5.188 1.755,6.636c1.19,1.448 2.842,2.179 4.953,2.193Zm-12.391,65.294c2.4,0.017 5.131,-2.845 8.194,-8.585c3.062,-5.739 6.028,-14.887 8.897,-27.444c-7.435,6.286 -12.801,11.962 -16.099,17.028c-3.299,5.066 -4.961,9.518 -4.987,13.358c-0.011,1.632 0.292,2.978 0.909,4.039c0.617,1.06 1.646,1.595 3.086,1.604Z" style="fill:#0d47a1;fill-rule:nonzero;"/><path d="M931.818,757.399c-4.992,-0.034 -8.8,-1.212 -11.425,-3.533c-2.624,-2.322 -3.927,-4.923 -3.907,-7.803c0.016,-2.496 0.943,-4.65 2.779,-6.461c1.836,-1.812 4.531,-2.706 8.082,-2.682c1.248,0.008 2.712,0.138 4.39,0.39c1.678,0.251 2.949,0.427 3.812,0.529c-0.079,-2.496 -0.615,-4.852 -1.608,-7.067c-0.993,-2.214 -2.251,-4.359 -3.773,-6.433c-1.522,-2.075 -2.95,-3.884 -4.283,-5.429c-3.014,5.644 -5.998,10.328 -8.951,14.052c-2.953,3.724 -6.169,7.254 -9.648,10.591c-1.739,1.716 -3.569,2.568 -5.489,2.555c-1.536,-0.01 -2.78,-0.571 -3.733,-1.681c-0.952,-1.11 -1.423,-2.482 -1.412,-4.114c0.013,-1.92 0.697,-3.691 2.052,-5.314l1.887,-2.291c5.324,-6.493 9.344,-11.842 12.061,-16.047c1.746,-2.773 3.521,-6.073 5.322,-9.901c1.802,-3.828 4.165,-9.044 7.09,-15.648c1.852,-4.212 5.658,-6.298 11.418,-6.26c2.688,0.018 4.559,0.271 5.611,0.758c1.053,0.487 1.576,1.259 1.569,2.315c-0.004,0.576 -0.202,1.486 -0.595,2.732c-0.392,1.245 -0.928,2.49 -1.609,3.733c-1.751,3.444 -2.635,6.366 -2.651,8.766c-0.01,1.44 0.484,3.028 1.48,4.762c0.996,1.735 2.542,3.906 4.636,6.512c3.045,4.052 5.35,7.5 6.915,10.343c1.565,2.842 2.336,5.943 2.313,9.303c-0.027,4.032 -0.989,7.842 -2.885,11.429c-1.896,3.588 -4.531,6.474 -7.906,8.659c-3.375,2.186 -7.222,3.264 -11.542,3.235Z" style="fill:#0d47a1;fill-rule:nonzero;"/></g><g><path d="M433.007,540.696c0.416,0.003 0.743,0.197 0.98,0.583c0.238,0.386 0.354,0.914 0.349,1.586c-0.008,1.248 -0.319,2.238 -0.932,2.97c-3.194,3.851 -6.582,5.764 -10.166,5.74c-3.104,-0.021 -5.576,-1.238 -7.416,-3.65c-1.84,-2.413 -2.745,-5.859 -2.714,-10.339c0.007,-1.088 0.062,-2.175 0.166,-3.263c-2.115,0.37 -4.421,0.643 -6.918,0.818c-1.665,0.117 -2.801,0.189 -3.41,0.217c-0.662,3.26 -1.585,7.253 -2.768,11.982c-0.691,2.779 -1.98,4.162 -3.868,4.15c-2.048,-0.014 -3.066,-0.949 -3.054,-2.805c0.003,-0.416 0.087,-0.991 0.252,-1.726c1.118,-4.377 2.006,-8.083 2.667,-11.119l-2.305,0.081c-1.056,-0.007 -1.822,-0.196 -2.3,-0.568c-0.477,-0.371 -0.713,-0.972 -0.708,-1.804c0.007,-1.056 0.317,-1.83 0.928,-2.322c0.611,-0.492 1.621,-0.765 3.029,-0.82l2.545,-0.079c0.862,-4.506 1.302,-7.943 1.318,-10.311c0.01,-1.504 -0.207,-2.53 -0.652,-3.077c-0.444,-0.547 -1.034,-0.823 -1.77,-0.828c-2.24,-0.015 -4.781,1.84 -7.622,5.565c-0.42,0.541 -0.885,0.81 -1.397,0.807c-0.448,-0.003 -0.831,-0.214 -1.148,-0.632c-0.317,-0.418 -0.474,-0.947 -0.469,-1.587c0.006,-0.992 0.413,-2.045 1.221,-3.16c1.421,-1.942 3.208,-3.538 5.36,-4.788c2.153,-1.249 4.333,-1.867 6.541,-1.852c2.08,0.014 3.683,0.737 4.809,2.169c1.127,1.431 1.68,3.651 1.66,6.659c-0.018,2.656 -0.427,6.253 -1.225,10.792l4.705,-0.208c2.017,-0.083 3.746,-0.231 5.187,-0.446c0.6,-3.516 1.502,-6.806 2.707,-9.87c1.205,-3.064 2.693,-5.55 4.466,-7.458c1.773,-1.908 3.748,-2.854 5.924,-2.84c1.6,0.011 2.859,0.651 3.779,1.922c0.919,1.27 1.372,2.929 1.358,4.977c-0.053,7.936 -4.138,13.412 -12.255,16.43c-0.104,1.279 -0.161,2.607 -0.17,3.983c-0.023,3.36 0.377,5.746 1.199,7.16c0.823,1.414 1.986,2.125 3.49,2.136c1.312,0.008 2.514,-0.328 3.607,-1.008c1.093,-0.681 2.332,-1.849 3.72,-3.503c0.387,-0.446 0.82,-0.667 1.3,-0.664Zm-6.297,-27.259c-0.704,-0.004 -1.452,0.631 -2.244,1.905c-0.793,1.275 -1.549,3.014 -2.268,5.217c-0.718,2.203 -1.295,4.616 -1.728,7.237c2.567,-1.039 4.465,-2.53 5.694,-4.474c1.229,-1.944 1.854,-4.452 1.875,-7.524c0.005,-0.736 -0.12,-1.312 -0.373,-1.73c-0.253,-0.418 -0.572,-0.628 -0.956,-0.631Z" style="fill:#0d47a1;fill-rule:nonzero;"/><path d="M458.111,540.866c0.415,0.002 0.742,0.197 0.98,0.582c0.237,0.386 0.353,0.915 0.349,1.587c-0.009,1.279 -0.319,2.269 -0.932,2.969c-1.194,1.432 -2.875,2.749 -5.043,3.95c-2.168,1.202 -4.484,1.794 -6.948,1.778c-3.36,-0.023 -5.962,-0.952 -7.805,-2.789c-1.844,-1.836 -2.755,-4.339 -2.734,-7.507c0.015,-2.207 0.493,-4.26 1.434,-6.158c0.94,-1.898 2.239,-3.401 3.894,-4.51c1.656,-1.109 3.523,-1.656 5.603,-1.642c1.856,0.012 3.341,0.574 4.453,1.686c1.113,1.111 1.663,2.611 1.65,4.499c-0.015,2.208 -0.82,4.099 -2.414,5.672c-1.595,1.573 -4.283,2.811 -8.066,3.714c0.79,1.477 2.305,2.223 4.545,2.238c1.44,0.01 3.084,-0.483 4.93,-1.478c1.847,-0.996 3.448,-2.305 4.803,-3.928c0.387,-0.446 0.821,-0.667 1.301,-0.663Zm-12.049,-7.042c-1.184,-0.008 -2.189,0.674 -3.014,2.044c-0.825,1.37 -1.245,3.032 -1.258,4.984l0,0.096c1.891,-0.436 3.383,-1.098 4.477,-1.986c1.094,-0.889 1.645,-1.925 1.653,-3.109c0.004,-0.608 -0.161,-1.097 -0.494,-1.468c-0.334,-0.37 -0.788,-0.557 -1.364,-0.561Z" style="fill:#0d47a1;fill-rule:nonzero;"/><path d="M461.157,551.83c-1.984,-0.013 -3.563,-0.744 -4.738,-2.192c-1.174,-1.448 -1.753,-3.34 -1.737,-5.676c0.017,-2.559 0.625,-4.979 1.824,-7.259c1.2,-2.28 2.788,-4.11 4.766,-5.488c1.977,-1.379 4.07,-2.061 6.277,-2.046c0.704,0.005 1.176,0.144 1.414,0.417c0.238,0.274 0.435,0.763 0.59,1.468c0.673,-0.123 1.377,-0.182 2.113,-0.177c1.568,0.01 2.348,0.575 2.341,1.695c-0.005,0.672 -0.256,2.271 -0.753,4.795c-0.76,3.675 -1.146,6.233 -1.155,7.673c-0.004,0.48 0.114,0.865 0.352,1.154c0.238,0.29 0.549,0.436 0.933,0.438c0.608,0.005 1.347,-0.382 2.216,-1.161c0.869,-0.778 2.046,-2.042 3.53,-3.792c0.387,-0.445 0.82,-0.666 1.3,-0.663c0.416,0.003 0.743,0.197 0.98,0.582c0.238,0.386 0.354,0.915 0.349,1.587c-0.008,1.28 -0.319,2.27 -0.932,2.97c-1.323,1.623 -2.724,2.989 -4.203,4.099c-1.48,1.11 -2.908,1.661 -4.284,1.652c-1.055,-0.008 -2.021,-0.374 -2.896,-1.1c-0.875,-0.726 -1.533,-1.714 -1.972,-2.965c-1.682,2.676 -3.787,4.006 -6.315,3.989Zm1.76,-4.836c0.704,0.005 1.379,-0.407 2.025,-1.234c0.645,-0.828 1.117,-1.929 1.414,-3.303l1.835,-8.82c-1.344,0.023 -2.587,0.519 -3.73,1.487c-1.142,0.968 -2.055,2.25 -2.738,3.846c-0.682,1.595 -1.03,3.289 -1.042,5.081c-0.007,0.992 0.188,1.729 0.585,2.212c0.397,0.483 0.947,0.726 1.651,0.731Z" style="fill:#0d47a1;fill-rule:nonzero;"/><path d="M497.312,536.041c0.704,0.005 1.302,0.257 1.795,0.756c0.492,0.5 0.736,1.117 0.731,1.853c-0.002,0.416 -0.101,0.864 -0.297,1.342c-0.52,1.181 -1.246,2.168 -2.18,2.962c-0.933,0.794 -1.96,1.187 -3.08,1.179c-0.896,-0.006 -1.653,-0.331 -2.273,-0.975c-0.62,-0.644 -0.926,-1.51 -0.919,-2.598c0.004,-0.608 0.041,-1.264 0.11,-1.968c0.067,-0.511 0.101,-0.863 0.103,-1.055c0.001,-0.256 -0.053,-0.448 -0.164,-0.577c-0.112,-0.129 -0.247,-0.194 -0.407,-0.195c-0.448,-0.003 -1.06,0.529 -1.835,1.596c-0.775,1.067 -1.553,2.477 -2.332,4.232c-0.78,1.755 -1.417,3.607 -1.91,5.555c-0.362,1.534 -0.769,2.555 -1.221,3.064c-0.451,0.509 -1.189,0.76 -2.213,0.753c-1.216,-0.008 -2.067,-0.654 -2.555,-1.937c-0.487,-1.283 -0.721,-3.333 -0.702,-6.149c0.028,-4.16 0.646,-8.108 1.855,-11.844c0.295,-0.926 0.771,-1.602 1.43,-2.03c0.659,-0.428 1.58,-0.637 2.764,-0.629c0.64,0.004 1.088,0.087 1.343,0.249c0.255,0.161 0.381,0.466 0.378,0.914c-0.004,0.512 -0.252,1.663 -0.744,3.451c-0.328,1.278 -0.592,2.396 -0.79,3.355c-0.199,0.959 -0.367,2.142 -0.504,3.549c1.074,-2.745 2.273,-4.977 3.597,-6.696c1.324,-1.719 2.612,-2.943 3.865,-3.67c1.253,-0.728 2.391,-1.088 3.415,-1.081c0.928,0.006 1.638,0.275 2.131,0.806c0.492,0.531 0.735,1.309 0.728,2.333c-0.004,0.608 -0.188,1.759 -0.551,3.452l0.432,0.003Z" style="fill:#0d47a1;fill-rule:nonzero;"/><path d="M517.699,552.211c-1.216,-0.008 -2.067,-0.654 -2.555,-1.937c-0.487,-1.284 -0.721,-3.333 -0.702,-6.149c0.028,-4.16 0.646,-8.108 1.856,-11.844c0.294,-0.926 0.77,-1.603 1.429,-2.03c0.659,-0.428 1.581,-0.638 2.765,-0.63c0.64,0.005 1.087,0.088 1.342,0.249c0.255,0.162 0.381,0.467 0.378,0.915c-0.004,0.512 -0.251,1.662 -0.743,3.451c-0.329,1.278 -0.593,2.388 -0.791,3.331c-0.198,0.942 -0.366,2.117 -0.504,3.524c0.881,-2.49 1.927,-4.595 3.139,-6.315c1.212,-1.719 2.452,-2.999 3.722,-3.839c1.27,-0.839 2.464,-1.255 3.584,-1.248c1.12,0.008 1.911,0.269 2.371,0.784c0.461,0.516 0.687,1.301 0.68,2.357c-0.007,1.024 -0.323,2.878 -0.949,5.562c-0.264,1.15 -0.446,2.013 -0.546,2.588c1.627,-3.925 3.422,-6.777 5.386,-8.556c1.964,-1.779 3.794,-2.662 5.49,-2.651c2.08,0.014 3.113,1.061 3.099,3.141c-0.008,1.248 -0.376,3.502 -1.102,6.761c-0.626,2.78 -0.943,4.618 -0.949,5.514c-0.008,1.28 0.451,1.923 1.379,1.929c0.64,0.004 1.403,-0.383 2.288,-1.161c0.886,-0.778 2.07,-2.042 3.554,-3.792c0.387,-0.445 0.82,-0.666 1.3,-0.663c0.416,0.003 0.743,0.197 0.98,0.582c0.238,0.386 0.354,0.915 0.35,1.587c-0.009,1.28 -0.32,2.27 -0.932,2.97c-1.388,1.686 -2.877,3.068 -4.468,4.146c-1.592,1.077 -3.395,1.609 -5.411,1.595c-1.632,-0.011 -2.861,-0.491 -3.686,-1.441c-0.826,-0.949 -1.233,-2.32 -1.221,-4.112c0.006,-0.896 0.241,-2.494 0.704,-4.795c0.43,-2.013 0.647,-3.404 0.653,-4.172c0.003,-0.512 -0.171,-0.769 -0.523,-0.771c-0.416,-0.003 -1.012,0.529 -1.787,1.596c-0.775,1.066 -1.553,2.477 -2.333,4.232c-0.779,1.755 -1.416,3.606 -1.909,5.555c-0.362,1.534 -0.777,2.555 -1.245,3.064c-0.467,0.509 -1.213,0.76 -2.237,0.753c-1.056,-0.007 -1.844,-0.517 -2.366,-1.528c-0.521,-1.012 -0.777,-2.237 -0.767,-3.677c0.008,-1.216 0.18,-2.975 0.516,-5.277c0.269,-2.046 0.407,-3.389 0.411,-4.029c0.003,-0.512 -0.171,-0.77 -0.523,-0.772c-0.48,-0.003 -1.092,0.569 -1.836,1.716c-0.743,1.147 -1.465,2.614 -2.165,4.401c-0.7,1.788 -1.264,3.544 -1.692,5.269c-0.362,1.502 -0.777,2.515 -1.244,3.04c-0.468,0.525 -1.198,0.784 -2.19,0.777Z" style="fill:#0d47a1;fill-rule:nonzero;"/><path d="M556.464,526.695c-1.344,-0.009 -2.35,-0.327 -3.017,-0.956c-0.668,-0.628 -0.998,-1.503 -0.991,-2.623c0.008,-1.12 0.454,-2.053 1.339,-2.799c0.885,-0.746 1.984,-1.114 3.296,-1.106c1.184,0.008 2.142,0.303 2.874,0.884c0.732,0.581 1.094,1.399 1.087,2.455c-0.008,1.28 -0.431,2.293 -1.268,3.04c-0.837,0.746 -1.944,1.115 -3.32,1.105Zm-0.557,25.773c-2.08,-0.014 -3.587,-0.76 -4.521,-2.238c-0.934,-1.479 -1.393,-3.434 -1.377,-5.866c0.01,-1.44 0.206,-3.286 0.589,-5.54c0.384,-2.253 0.87,-4.354 1.459,-6.302c0.295,-1.022 0.683,-1.724 1.166,-2.104c0.483,-0.381 1.252,-0.568 2.308,-0.561c1.632,0.011 2.444,0.561 2.437,1.649c-0.006,0.8 -0.322,2.654 -0.95,5.561c-0.791,3.515 -1.191,5.896 -1.2,7.144c-0.006,0.96 0.117,1.697 0.369,2.211c0.253,0.514 0.683,0.773 1.291,0.777c0.576,0.004 1.299,-0.392 2.168,-1.186c0.87,-0.794 2.03,-2.05 3.482,-3.768c0.387,-0.446 0.82,-0.667 1.3,-0.664c0.416,0.003 0.743,0.197 0.98,0.583c0.238,0.386 0.354,0.914 0.35,1.586c-0.009,1.28 -0.32,2.27 -0.932,2.97c-3.194,3.851 -6.167,5.767 -8.919,5.748Z" style="fill:#0d47a1;fill-rule:nonzero;"/><path d="M570.731,553.624c-1.664,-0.011 -2.933,-0.404 -3.808,-1.178c-0.875,-0.773 -1.309,-1.64 -1.303,-2.6c0.006,-0.832 0.315,-1.55 0.927,-2.154c0.612,-0.604 1.51,-0.902 2.694,-0.894c0.416,0.003 0.904,0.046 1.463,0.13c0.56,0.084 0.983,0.142 1.271,0.176c-0.026,-0.832 -0.205,-1.617 -0.536,-2.355c-0.331,-0.739 -0.75,-1.453 -1.258,-2.145c-0.507,-0.691 -0.983,-1.295 -1.428,-1.81c-1.004,1.882 -1.999,3.443 -2.983,4.685c-0.984,1.241 -2.056,2.418 -3.216,3.53c-0.58,0.572 -1.19,0.856 -1.83,0.852c-0.512,-0.004 -0.926,-0.191 -1.244,-0.561c-0.318,-0.37 -0.474,-0.827 -0.471,-1.371c0.005,-0.64 0.233,-1.23 0.684,-1.771l0.629,-0.764c1.775,-2.164 3.115,-3.947 4.02,-5.349c0.551,-0.925 1.199,-2.16 1.945,-3.707c0.747,-1.547 1.478,-3.15 2.193,-4.81c0.617,-1.403 1.886,-2.099 3.806,-2.086c0.896,0.006 1.519,0.09 1.87,0.253c0.351,0.162 0.526,0.419 0.523,0.771c-0.001,0.192 -0.067,0.496 -0.198,0.911c-0.131,0.415 -0.31,0.83 -0.536,1.244c-0.584,1.148 -0.879,2.122 -0.884,2.922c-0.003,0.48 0.161,1.009 0.493,1.588c0.332,0.578 0.848,1.301 1.546,2.17c1.015,1.351 1.783,2.5 2.305,3.448c0.521,0.947 0.778,1.981 0.771,3.101c-0.002,0.32 -0.038,0.768 -0.105,1.343c1.572,-0.597 3.423,-2.201 5.552,-4.81c0.387,-0.446 0.821,-0.667 1.301,-0.664c0.416,0.003 0.742,0.197 0.98,0.583c0.237,0.386 0.354,0.914 0.349,1.586c-0.008,1.216 -0.319,2.206 -0.932,2.97c-1.613,1.973 -3.15,3.315 -4.611,4.025c-1.461,0.71 -3.264,1.09 -5.408,1.14c-1.287,1.079 -2.811,1.613 -4.571,1.601Z" style="fill:#0d47a1;fill-rule:nonzero;"/><path d="M588.767,526.913c-1.344,-0.009 -2.349,-0.328 -3.017,-0.956c-0.668,-0.629 -0.998,-1.503 -0.991,-2.623c0.008,-1.12 0.454,-2.053 1.339,-2.799c0.885,-0.746 1.984,-1.115 3.296,-1.106c1.184,0.008 2.142,0.302 2.874,0.883c0.732,0.581 1.095,1.4 1.087,2.456c-0.008,1.28 -0.431,2.293 -1.268,3.039c-0.837,0.747 -1.944,1.115 -3.32,1.106Zm-0.557,25.773c-2.08,-0.014 -3.587,-0.76 -4.521,-2.239c-0.934,-1.478 -1.393,-3.433 -1.377,-5.865c0.01,-1.44 0.206,-3.287 0.59,-5.54c0.383,-2.254 0.869,-4.355 1.458,-6.303c0.295,-1.022 0.684,-1.723 1.166,-2.104c0.483,-0.381 1.252,-0.567 2.308,-0.56c1.632,0.011 2.444,0.56 2.437,1.648c-0.005,0.8 -0.322,2.654 -0.949,5.562c-0.792,3.515 -1.192,5.896 -1.201,7.144c-0.006,0.96 0.117,1.697 0.37,2.211c0.252,0.513 0.682,0.772 1.29,0.776c0.576,0.004 1.299,-0.391 2.168,-1.185c0.87,-0.794 2.03,-2.051 3.482,-3.769c0.387,-0.445 0.82,-0.666 1.3,-0.663c0.416,0.003 0.743,0.197 0.98,0.583c0.238,0.385 0.354,0.914 0.35,1.586c-0.009,1.28 -0.32,2.27 -0.932,2.97c-3.194,3.85 -6.167,5.766 -8.919,5.748Z" style="fill:#0d47a1;fill-rule:nonzero;"/><path d="M603.042,552.786c-3.04,-0.021 -5.41,-0.925 -7.11,-2.712c-1.7,-1.788 -2.541,-4.138 -2.521,-7.049c0.017,-2.592 0.545,-4.861 1.582,-6.806c1.037,-1.945 2.375,-3.44 4.014,-4.485c1.639,-1.045 3.355,-1.561 5.147,-1.549c1.76,0.011 3.124,0.541 4.093,1.587c0.969,1.047 1.448,2.386 1.437,4.018c-0.009,1.344 -0.313,2.478 -0.911,3.402c-0.598,0.924 -1.377,1.383 -2.337,1.376c-0.608,-0.004 -1.095,-0.151 -1.461,-0.442c-0.366,-0.29 -0.548,-0.691 -0.544,-1.203c0.001,-0.224 0.035,-0.48 0.101,-0.768c0.066,-0.287 0.115,-0.495 0.148,-0.623c0.163,-0.479 0.247,-0.926 0.249,-1.342c0.003,-0.416 -0.099,-0.737 -0.305,-0.962c-0.207,-0.226 -0.502,-0.34 -0.886,-0.342c-0.736,-0.005 -1.426,0.318 -2.071,0.97c-0.644,0.652 -1.162,1.536 -1.553,2.654c-0.392,1.117 -0.592,2.348 -0.601,3.692c-0.013,1.824 0.354,3.21 1.1,4.159c0.745,0.949 1.806,1.428 3.182,1.438c1.088,0.007 2.09,-0.306 3.007,-0.94c0.916,-0.634 1.826,-1.572 2.731,-2.814c0.387,-0.477 0.82,-0.714 1.3,-0.711c0.416,0.003 0.743,0.197 0.98,0.582c0.238,0.386 0.354,0.915 0.35,1.587c-0.008,1.152 -0.287,2.142 -0.836,2.97c-0.873,1.338 -2.016,2.395 -3.43,3.169c-1.413,0.775 -3.032,1.156 -4.855,1.144Z" style="fill:#0d47a1;fill-rule:nonzero;"/><path d="M662.132,538.351c0.096,-0.031 0.256,-0.046 0.48,-0.045c0.48,0.004 0.847,0.166 1.101,0.488c0.254,0.322 0.379,0.754 0.375,1.298c-0.006,0.992 -0.204,1.767 -0.591,2.324c-0.388,0.558 -0.967,0.962 -1.736,1.213c-1.476,0.47 -3.045,0.699 -4.709,0.688c-1.408,-0.009 -2.735,-0.21 -3.98,-0.603c-0.938,1.498 -1.973,3.043 -3.104,4.635c-1.292,1.816 -2.396,3.056 -3.313,3.722c-0.916,0.666 -1.95,0.995 -3.102,0.987c-1.28,-0.008 -2.245,-0.511 -2.894,-1.507c-0.65,-0.997 -1.047,-2.631 -1.191,-4.904l-0.217,-3.506c-1.01,2.681 -1.912,4.723 -2.705,6.126c-0.793,1.403 -1.584,2.374 -2.372,2.912c-0.787,0.539 -1.709,0.805 -2.765,0.798c-1.312,-0.009 -2.341,-0.528 -3.086,-1.557c-0.745,-1.029 -1.206,-2.648 -1.383,-4.858c-0.354,-4.482 -0.519,-8.403 -0.497,-11.763l0.011,-1.68c0.04,-1.056 0.333,-1.79 0.879,-2.202c0.547,-0.413 1.364,-0.615 2.452,-0.608c0.832,0.006 1.447,0.194 1.845,0.565c0.397,0.37 0.593,0.988 0.587,1.852c-0.025,3.68 0.167,8.465 0.576,14.356c2.206,-4.561 4.238,-9.316 6.096,-14.263c0.358,-0.958 0.787,-1.603 1.285,-1.936c0.498,-0.333 1.099,-0.496 1.803,-0.492c0.864,0.006 1.463,0.186 1.797,0.54c0.333,0.355 0.497,0.98 0.491,1.876c-0.025,3.68 0.167,8.465 0.575,14.356c1.939,-2.835 3.395,-5.097 4.366,-6.787c-0.474,-0.931 -0.706,-2.037 -0.698,-3.317c0.008,-1.088 0.255,-2.142 0.742,-3.163c0.487,-1.02 1.148,-1.848 1.985,-2.482c0.836,-0.635 1.782,-0.948 2.838,-0.941c0.928,0.006 1.678,0.339 2.249,0.999c0.572,0.66 0.853,1.614 0.845,2.862c-0.01,1.44 -0.405,3.085 -1.185,4.936c1.216,-0.056 2.834,-0.285 4.852,-0.688l1.298,-0.231Z" style="fill:#0d47a1;fill-rule:nonzero;"/><path d="M666.286,527.435c-1.344,-0.009 -2.35,-0.328 -3.018,-0.956c-0.668,-0.629 -0.998,-1.503 -0.99,-2.623c0.007,-1.12 0.453,-2.053 1.339,-2.799c0.885,-0.746 1.983,-1.115 3.295,-1.106c1.184,0.008 2.142,0.302 2.874,0.883c0.732,0.581 1.095,1.4 1.088,2.456c-0.009,1.28 -0.432,2.293 -1.269,3.039c-0.837,0.747 -1.943,1.115 -3.319,1.106Zm-0.558,25.773c-2.08,-0.014 -3.587,-0.76 -4.521,-2.239c-0.934,-1.478 -1.393,-3.433 -1.376,-5.865c0.009,-1.44 0.206,-3.287 0.589,-5.54c0.383,-2.254 0.869,-4.355 1.458,-6.303c0.295,-1.022 0.684,-1.723 1.167,-2.104c0.482,-0.381 1.251,-0.567 2.307,-0.56c1.632,0.011 2.445,0.56 2.437,1.648c-0.005,0.8 -0.322,2.654 -0.949,5.562c-0.792,3.515 -1.192,5.896 -1.2,7.144c-0.007,0.96 0.116,1.697 0.369,2.21c0.252,0.514 0.683,0.773 1.291,0.777c0.576,0.004 1.298,-0.391 2.168,-1.185c0.869,-0.794 2.03,-2.051 3.481,-3.769c0.387,-0.445 0.821,-0.666 1.301,-0.663c0.416,0.003 0.742,0.197 0.98,0.582c0.237,0.386 0.354,0.915 0.349,1.587c-0.009,1.28 -0.319,2.27 -0.932,2.97c-3.194,3.85 -6.167,5.766 -8.919,5.748Z" style="fill:#0d47a1;fill-rule:nonzero;"/><path d="M693.113,542.448c0.416,0.003 0.743,0.197 0.98,0.582c0.238,0.386 0.354,0.915 0.35,1.587c-0.009,1.28 -0.32,2.27 -0.932,2.97c-1.388,1.686 -2.901,3.068 -4.54,4.145c-1.64,1.077 -3.515,1.609 -5.627,1.594c-6.528,-0.044 -9.761,-4.657 -9.699,-13.841c0.009,-1.408 0.067,-2.832 0.172,-4.271l-1.872,-0.013c-0.959,-0.006 -1.606,-0.187 -1.94,-0.541c-0.334,-0.354 -0.498,-0.915 -0.493,-1.683c0.012,-1.792 0.738,-2.683 2.178,-2.674l2.736,0.019c0.568,-3.516 1.422,-6.727 2.561,-9.631c1.14,-2.905 2.507,-5.215 4.103,-6.933c1.596,-1.717 3.305,-2.57 5.129,-2.557c1.344,0.009 2.396,0.608 3.156,1.797c0.76,1.189 1.134,2.68 1.122,4.472c-0.033,4.96 -2.142,9.265 -6.327,12.917l5.376,0.037c0.512,0.003 0.879,0.117 1.102,0.343c0.222,0.226 0.331,0.642 0.327,1.25c-0.015,2.208 -1.83,3.3 -5.446,3.276l-5.856,-0.04c-0.074,1.6 -0.115,2.847 -0.121,3.743c-0.022,3.328 0.354,5.667 1.129,7.016c0.775,1.349 2.01,2.03 3.706,2.041c1.376,0.01 2.595,-0.398 3.657,-1.223c1.061,-0.825 2.318,-2.065 3.769,-3.719c0.387,-0.445 0.82,-0.666 1.3,-0.663Zm-8.221,-26.648c-0.48,-0.003 -1.02,0.593 -1.62,1.789c-0.6,1.196 -1.171,2.856 -1.713,4.981c-0.543,2.124 -0.998,4.481 -1.368,7.071c1.899,-1.62 3.327,-3.442 4.285,-5.468c0.958,-2.025 1.442,-3.87 1.453,-5.534c0.013,-1.888 -0.333,-2.834 -1.037,-2.839Z" style="fill:#0d47a1;fill-rule:nonzero;"/><path d="M707.639,530.881c1.024,0.007 1.799,0.277 2.323,0.808c0.524,0.532 0.783,1.309 0.776,2.333c-0.005,0.832 -0.192,2.399 -0.559,4.701c-0.333,1.949 -0.602,3.796 -0.806,5.538c-0.203,1.743 -0.312,3.686 -0.327,5.83c-0.008,1.216 -0.262,2.087 -0.762,2.611c-0.499,0.525 -1.309,0.783 -2.429,0.776c-1.056,-0.007 -1.822,-0.284 -2.298,-0.832c-0.477,-0.547 -0.711,-1.364 -0.704,-2.452c0.009,-1.28 0.247,-3.391 0.715,-6.332c0.401,-2.557 0.604,-4.188 0.609,-4.892c0.003,-0.512 -0.171,-0.769 -0.523,-0.771c-0.416,-0.003 -1.012,0.529 -1.787,1.596c-0.775,1.067 -1.552,2.477 -2.332,4.232c-0.78,1.755 -1.417,3.607 -1.91,5.555c-0.362,1.502 -0.777,2.515 -1.244,3.04c-0.468,0.525 -1.198,0.784 -2.19,0.777c-0.992,-0.006 -1.717,-0.371 -2.176,-1.094c-0.459,-0.723 -0.764,-1.837 -0.914,-3.343c-0.15,-1.505 -0.215,-3.713 -0.195,-6.625c0.033,-4.928 0.572,-10.06 1.616,-15.397c1.044,-5.338 2.562,-9.815 4.554,-13.434c1.993,-3.619 4.365,-5.419 7.117,-5.4c1.472,0.01 2.659,0.65 3.563,1.92c0.903,1.27 1.348,2.913 1.335,4.929c-0.022,3.232 -0.989,6.577 -2.9,10.037c-1.911,3.459 -5.011,7.494 -9.298,12.105c-0.107,1.664 -0.166,3.375 -0.178,5.135c1.074,-2.713 2.265,-4.921 3.572,-6.624c1.308,-1.703 2.596,-2.919 3.865,-3.646c1.269,-0.728 2.431,-1.088 3.487,-1.081Zm-4.486,-18.03c-0.576,-0.004 -1.222,0.816 -1.937,2.459c-0.715,1.643 -1.41,3.862 -2.085,6.658c-0.675,2.795 -1.231,5.84 -1.669,9.133c1.999,-2.323 3.656,-4.856 4.971,-7.599c1.314,-2.743 1.979,-5.235 1.994,-7.475c0.007,-1.024 -0.099,-1.808 -0.32,-2.354c-0.22,-0.545 -0.538,-0.819 -0.954,-0.822Z" style="fill:#0d47a1;fill-rule:nonzero;"/><path d="M751.383,542.936c0.416,0.003 0.743,0.205 0.98,0.607c0.237,0.401 0.354,0.906 0.35,1.514c-0.005,0.736 -0.121,1.311 -0.348,1.726c-0.226,0.414 -0.581,0.78 -1.063,1.097l-9.258,6.13c-1.26,6.615 -2.887,11.812 -4.881,15.591c-1.993,3.779 -4.51,5.658 -7.55,5.637c-1.632,-0.011 -2.956,-0.524 -3.974,-1.538c-1.017,-1.015 -1.52,-2.339 -1.509,-3.971c0.01,-1.504 0.365,-3.037 1.063,-4.601c0.699,-1.563 1.991,-3.354 3.876,-5.374c1.886,-2.019 4.55,-4.329 7.991,-6.93l0.152,-1.103c0.232,-1.182 0.499,-2.877 0.802,-5.083c-0.656,2.3 -1.563,4.046 -2.723,5.238c-1.16,1.192 -2.38,1.784 -3.66,1.775c-1.44,-0.009 -2.612,-0.681 -3.515,-2.015c-0.903,-1.334 -1.348,-2.993 -1.334,-4.977c0.016,-2.4 0.191,-4.599 0.524,-6.597c0.333,-1.998 0.876,-4.114 1.627,-6.349c0.326,-0.958 0.779,-1.643 1.358,-2.055c0.578,-0.412 1.492,-0.614 2.74,-0.606c0.704,0.005 1.191,0.12 1.462,0.346c0.27,0.226 0.404,0.563 0.401,1.011c-0.002,0.256 -0.184,1.119 -0.546,2.588c-0.328,1.182 -0.591,2.252 -0.789,3.211c-0.265,1.31 -0.498,2.565 -0.698,3.763c-0.2,1.199 -0.302,2.182 -0.308,2.95c-0.008,1.216 0.324,1.827 0.996,1.831c0.48,0.003 1.083,-0.472 1.81,-1.428c0.726,-0.955 1.504,-2.406 2.333,-4.352c0.829,-1.946 1.637,-4.341 2.425,-7.184c0.262,-0.958 0.659,-1.643 1.189,-2.056c0.531,-0.412 1.325,-0.615 2.381,-0.608c0.736,0.005 1.247,0.105 1.534,0.298c0.286,0.194 0.428,0.515 0.425,0.963c-0.005,0.8 -0.44,3.549 -1.303,8.248l-1.3,7.719c2.476,-1.839 4.887,-3.519 7.234,-5.039c0.417,-0.253 0.786,-0.379 1.106,-0.377Zm-21.21,27.65c0.8,0.005 1.702,-0.917 2.706,-2.766c1.005,-1.849 2.017,-4.93 3.039,-9.244c-2.478,2.064 -4.275,3.948 -5.391,5.652c-1.115,1.705 -1.677,3.197 -1.686,4.477c-0.003,0.544 0.098,0.993 0.303,1.346c0.206,0.353 0.549,0.532 1.029,0.535Z" style="fill:#0d47a1;fill-rule:nonzero;"/><path d="M774.306,538.962c0.416,0.003 0.735,0.213 0.956,0.631c0.221,0.417 0.33,0.946 0.326,1.586c-0.011,1.536 -0.481,2.445 -1.411,2.727c-1.924,0.659 -4.039,1.029 -6.343,1.109c-0.626,2.684 -1.841,4.828 -3.644,6.432c-1.803,1.604 -3.84,2.398 -6.112,2.383c-1.92,-0.013 -3.557,-0.488 -4.911,-1.426c-1.353,-0.937 -2.377,-2.176 -3.071,-3.716c-0.693,-1.541 -1.034,-3.207 -1.022,-4.999c0.016,-2.432 0.495,-4.597 1.436,-6.495c0.941,-1.897 2.231,-3.377 3.87,-4.438c1.639,-1.061 3.451,-1.585 5.435,-1.571c2.431,0.016 4.386,0.869 5.862,2.559c1.477,1.69 2.335,3.768 2.575,6.234c1.504,-0.086 3.298,-0.394 5.382,-0.924c0.256,-0.062 0.48,-0.093 0.672,-0.092Zm-15.81,9.782c1.024,0.007 1.915,-0.403 2.673,-1.23c0.757,-0.827 1.269,-2.023 1.536,-3.59c-0.988,-0.678 -1.742,-1.563 -2.262,-2.655c-0.521,-1.091 -0.777,-2.245 -0.769,-3.461c0.003,-0.512 0.055,-1.024 0.154,-1.535l-0.24,-0.002c-1.28,-0.008 -2.348,0.601 -3.204,1.827c-0.856,1.226 -1.292,2.959 -1.307,5.199c-0.012,1.76 0.323,3.106 1.005,4.039c0.681,0.933 1.486,1.402 2.414,1.408Z" style="fill:#0d47a1;fill-rule:nonzero;"/><path d="M776.366,553.953c-1.504,-0.01 -2.708,-0.635 -3.612,-1.873c-0.904,-1.238 -1.348,-2.945 -1.333,-5.121c0.016,-2.4 0.191,-4.599 0.524,-6.596c0.333,-1.998 0.876,-4.115 1.627,-6.35c0.326,-0.957 0.779,-1.642 1.358,-2.054c0.578,-0.413 1.492,-0.614 2.74,-0.606c0.704,0.005 1.191,0.12 1.462,0.346c0.27,0.226 0.404,0.563 0.401,1.011c-0.002,0.256 -0.184,1.118 -0.546,2.588c-0.328,1.182 -0.591,2.252 -0.789,3.211c-0.663,3.355 -0.998,5.593 -1.006,6.713c-0.004,0.672 0.073,1.145 0.231,1.418c0.158,0.273 0.413,0.41 0.765,0.413c0.48,0.003 1.091,-0.481 1.834,-1.452c0.742,-0.971 1.528,-2.438 2.358,-4.4c0.829,-1.963 1.621,-4.333 2.376,-7.112c0.262,-0.959 0.659,-1.644 1.189,-2.056c0.531,-0.413 1.325,-0.615 2.381,-0.608c0.704,0.004 1.206,0.192 1.508,0.562c0.301,0.37 0.45,0.923 0.445,1.659c-0.006,0.8 -0.076,1.687 -0.21,2.663c-0.135,0.975 -0.286,1.974 -0.452,2.997c-0.334,2.045 -0.603,3.908 -0.806,5.586c-0.203,1.679 -0.312,3.59 -0.327,5.734c-0.008,1.216 -0.262,2.086 -0.761,2.611c-0.5,0.525 -1.31,0.783 -2.43,0.776c-1.184,-0.008 -2.005,-0.326 -2.465,-0.953c-0.46,-0.627 -0.684,-1.836 -0.672,-3.628c0.003,-0.352 0.04,-1.136 0.112,-2.352c-0.559,2.237 -1.379,3.943 -2.459,5.12c-1.079,1.177 -2.227,1.761 -3.443,1.753Z" style="fill:#0d47a1;fill-rule:nonzero;"/><path d="M796.765,554.09c-1.408,-0.009 -2.469,-0.401 -3.184,-1.173c-0.715,-0.773 -1.068,-1.784 -1.06,-3.032c0.01,-1.44 0.426,-2.589 1.248,-3.447c0.821,-0.859 1.968,-1.283 3.44,-1.273c1.408,0.009 2.47,0.36 3.185,1.053c0.716,0.693 1.069,1.712 1.06,3.055c-0.01,1.472 -0.434,2.646 -1.272,3.52c-0.838,0.874 -1.977,1.307 -3.417,1.297Z" style="fill:#0d47a1;fill-rule:nonzero;"/></g><g><path d="M167.39,386.91c4.678,0 49.695,-48.694 71.175,-54.417c45.533,-12.131 68.941,-4.037 51.887,26.421c-23.022,41.116 -98.135,68.498 -108.01,72.738c-10.154,4.359 -69.931,-30.807 -69.931,-41.857c0,-11.051 15.293,-2.885 54.879,-2.885Z" style="fill:#0d47a1;stroke:#fafafa;stroke-width:6px;"/><path d="M434.863,136.763c61.333,21.768 102.041,65.043 90.849,96.578c-7.11,20.032 -33.464,30.538 -67.466,29.957c-12.402,-0.212 -43.63,81.292 -106.883,106.665c-36.325,14.57 -100.166,-9.176 -108.327,-12.072c-2.609,-0.926 -76.844,40.387 -82.397,37.215c-2.99,-1.708 -40.409,-25.205 -38.274,-35.723c2.562,-12.623 33.197,8.63 34.671,6.439c13.578,-20.184 63.572,-63.802 73.409,-70.629c19.599,-13.602 31.975,5.276 36.213,-0.972c24.837,-36.621 69.002,-79.095 63.554,-83.101c-24.101,-17.726 -33.268,-38.312 -26.755,-56.662c11.192,-31.535 70.073,-39.464 131.406,-17.695Z" style="fill:#0d47a1;stroke:#fafafa;stroke-width:6px;"/><path d="M420.023,99.466c41.961,1.873 74.661,34.038 72.976,71.783c-1.684,37.746 -37.119,66.871 -79.08,64.998c-41.961,-1.872 -74.66,-34.037 -72.976,-71.783c1.685,-37.746 37.119,-66.87 79.08,-64.998Z" style="fill:#0d47a1;stroke:#fafafa;stroke-width:6px;"/><path d="M405.144,151.01c-3.54,9.963 -14.238,15.105 -24.493,12.011c-10.569,-3.19 -16.691,-13.927 -13.502,-24.496c2.601,-8.619 12.357,-9.927 22.926,-6.737c9.832,2.966 16.925,8.786 15.774,16.521c0.958,0.148 2.047,0.395 3.184,0.738c1.137,0.343 2.181,0.739 3.06,1.147c3.32,-7.081 12.449,-8.006 22.28,-5.039c10.569,3.189 17.973,9.675 15.373,18.294c-3.19,10.569 -14.229,16.128 -24.798,12.939c-10.255,-3.095 -16.324,-13.296 -13.761,-23.555c-0.932,-0.149 -1.983,-0.391 -3.079,-0.721c-1.096,-0.331 -2.105,-0.711 -2.964,-1.102Z" style="fill:#fafafa;stroke:#fafafa;stroke-width:6px;"/><path d="M384.298,186.227c3.324,3.954 18.321,10.678 32.673,3.914" style="fill:none;stroke:#fafafa;stroke-width:6px;"/></g><g><path d="M717.866,386.91c4.678,0 49.695,-48.694 71.175,-54.417c45.533,-12.131 68.941,-4.037 51.887,26.421c-23.022,41.116 -98.134,68.498 -108.01,72.738c-10.154,4.359 -69.93,-30.807 -69.93,-41.857c0,-11.051 15.292,-2.885 54.878,-2.885Z" style="fill:#0d47a1;stroke:#fafafa;stroke-width:6px;"/><path d="M985.34,136.763c61.333,21.768 102.04,65.043 90.848,96.578c-7.11,20.032 -33.464,30.538 -67.466,29.957c-12.402,-0.212 -43.629,81.292 -106.883,106.665c-36.324,14.57 -100.166,-9.176 -108.327,-12.072c-2.609,-0.926 -76.844,40.387 -82.397,37.215c-2.989,-1.708 -40.408,-25.205 -38.274,-35.723c2.562,-12.623 33.197,8.63 34.671,6.439c13.578,-20.184 63.572,-63.802 73.41,-70.629c19.598,-13.602 31.974,5.276 36.212,-0.972c24.838,-36.621 69.002,-79.095 63.554,-83.101c-24.101,-17.726 -33.268,-38.312 -26.755,-56.662c11.192,-31.535 70.074,-39.464 131.407,-17.695Z" style="fill:#0d47a1;stroke:#fafafa;stroke-width:6px;"/><path d="M970.499,99.466c41.961,1.873 74.661,34.038 72.976,71.783c-1.684,37.746 -37.118,66.871 -79.08,64.998c-41.961,-1.872 -74.66,-34.037 -72.976,-71.783c1.685,-37.746 37.119,-66.87 79.08,-64.998Z" style="fill:#0d47a1;stroke:#fafafa;stroke-width:6px;"/><path d="M955.62,151.01c-3.54,9.963 -14.238,15.105 -24.493,12.011c-10.569,-3.19 -16.691,-13.927 -13.502,-24.496c2.601,-8.619 12.358,-9.927 22.927,-6.737c9.831,2.966 16.924,8.786 15.773,16.521c0.958,0.148 2.047,0.395 3.184,0.738c1.137,0.343 2.181,0.739 3.061,1.147c3.319,-7.081 12.448,-8.006 22.279,-5.039c10.569,3.189 17.974,9.675 15.373,18.294c-3.19,10.569 -14.229,16.128 -24.798,12.939c-10.255,-3.095 -16.323,-13.296 -13.761,-23.555c-0.932,-0.149 -1.983,-0.391 -3.079,-0.721c-1.095,-0.331 -2.105,-0.711 -2.964,-1.102Z" style="fill:#fafafa;stroke:#fafafa;stroke-width:6px;"/><path d="M934.774,186.227c3.324,3.954 18.322,10.678 32.673,3.914" style="fill:none;stroke:#fafafa;stroke-width:6px;"/></g><g><path d="M442.722,386.91c4.678,0 49.695,-48.694 71.175,-54.417c45.533,-12.131 68.941,-4.037 51.887,26.421c-23.022,41.116 -98.134,68.498 -108.01,72.738c-10.154,4.359 -69.93,-30.807 -69.93,-41.857c0,-11.051 15.292,-2.885 54.878,-2.885Z" style="fill:#0d47a1;stroke:#fafafa;stroke-width:6px;"/><path d="M710.196,136.763c61.333,21.768 53.896,74.109 37.408,99.57c-0.697,1.077 -16.792,27.795 -18.492,29.369c-14.737,13.643 -45.705,81.512 -102.417,104.261c-36.324,14.57 -100.166,-9.176 -108.327,-12.072c-2.609,-0.926 -76.844,40.387 -82.397,37.215c-2.989,-1.708 -40.408,-25.205 -38.274,-35.723c2.562,-12.623 33.197,8.63 34.671,6.439c13.578,-20.184 63.572,-63.802 73.41,-70.629c19.598,-13.602 31.974,5.276 36.212,-0.972c24.838,-36.621 69.002,-79.095 63.554,-83.101c-24.101,-17.726 -33.268,-38.312 -26.755,-56.662c11.192,-31.535 70.074,-39.464 131.407,-17.695Z" style="fill:#0d47a1;stroke:#fafafa;stroke-width:6px;"/><path d="M695.355,99.466c41.961,1.873 74.661,34.038 72.976,71.783c-1.684,37.746 -37.118,66.871 -79.079,64.998c-41.961,-1.872 -74.661,-34.037 -72.977,-71.783c1.685,-37.746 37.119,-66.87 79.08,-64.998Z" style="fill:#0d47a1;stroke:#fafafa;stroke-width:6px;"/><path d="M680.476,151.01c-3.54,9.963 -14.238,15.105 -24.493,12.011c-10.569,-3.19 -16.691,-13.927 -13.502,-24.496c2.601,-8.619 12.358,-9.927 22.927,-6.737c9.831,2.966 16.924,8.786 15.773,16.521c0.958,0.148 2.047,0.395 3.184,0.738c1.137,0.343 2.181,0.739 3.061,1.147c3.319,-7.081 12.448,-8.006 22.279,-5.039c10.569,3.189 17.974,9.675 15.373,18.294c-3.19,10.569 -14.229,16.128 -24.798,12.939c-10.255,-3.095 -16.323,-13.296 -13.761,-23.555c-0.932,-0.149 -1.983,-0.391 -3.079,-0.721c-1.095,-0.331 -2.105,-0.711 -2.964,-1.102Z" style="fill:#fafafa;stroke:#fafafa;stroke-width:6px;"/></g><path d="M650.289,205.344c-0.568,-4.748 -4.884,-8.143 -9.633,-7.576l-17.209,2.057c-4.748,0.567 -8.143,4.883 -7.576,9.632l4.393,36.76c0.568,4.749 4.884,8.144 9.633,7.577l17.208,-2.057c4.749,-0.567 8.144,-4.883 7.576,-9.632l-4.392,-36.761Z" style="fill:#0d47a1;stroke:#fafafa;stroke-width:6px;"/><path d="M752.935,214.971c14.018,11.835 19.124,91.35 -37.418,93.064c-39.275,1.191 -91.072,-42.357 -78.249,-58.294c12.98,-16.133 72.102,17.585 76.641,19.994" style="fill:#0d47a1;stroke:#fafafa;stroke-width:6px;"/><path d="M228.697,165.183c6.501,1.558 23.205,16.754 25.163,21.143c1.003,2.249 -4.377,13.615 -4.287,16.076c0.214,5.809 10.827,15.799 9.252,16.744c-1.574,0.944 -16.227,-10.293 -17.796,-12.635c-1.315,-1.964 -0.111,-11.03 -0.686,-13.322c-0.696,-2.777 -12.735,-12.329 -12.735,-12.329l-10.343,47.469c-0.007,0.029 -0.014,0.059 -0.021,0.088c-0.015,0.074 -0.03,0.147 -0.046,0.22c-2.178,9.994 -14.934,15.714 -28.467,12.765c-13.534,-2.949 -22.754,-13.457 -20.576,-23.451c2.177,-9.994 14.933,-15.714 28.467,-12.765c5.941,1.294 11.051,4.045 14.73,7.57l9.868,-45.012c1.033,-4.633 5.165,-3.116 7.477,-2.561Z" style="fill:#0d47a1;stroke:#0d47a1;stroke-width:6px;"/></svg>