<svg xmlns="http://www.w3.org/2000/svg" width="34.689" height="29.85" viewBox="0 0 34.689 29.85">
  <defs>
    <style>
      .cls-1 {
        fill: #dc4a5e;
        stroke: #fff;
        stroke-linecap: round;
        stroke-linejoin: round;
        stroke-miterlimit: 1.5;
        stroke-width: 2px;
        fill-rule: evenodd;
      }
    </style>
  </defs>
  <path id="パス_75" data-name="パス 75" class="cls-1" d="M189.647,164.743c2.33.558,8.316,6,9.018,7.577.359.806-1.569,4.879-1.536,5.761.077,2.082,3.88,5.662,3.316,6s-5.815-3.689-6.378-4.528c-.471-.7-.04-3.953-.246-4.774-.249-1-4.564-4.418-4.564-4.418l-3.707,17.012-.008.032c-.005.027-.011.053-.016.079-.781,3.582-5.352,5.631-10.2,4.575s-8.154-4.823-7.374-8.4,5.352-5.632,10.2-4.575a11.037,11.037,0,0,1,5.279,2.713l3.536-16.131C187.338,164,188.819,164.544,189.647,164.743Z" transform="translate(-166.823 -163.503)"/>
</svg>
