<?xml version="1.0" encoding="utf-8"?>
<!-- Generator: Adobe Illustrator 24.1.0, SVG Export Plug-In . SVG Version: 6.00 Build 0)  -->
<svg version="1.1" id="レイヤー_1" xmlns:serif="http://www.serif.com/"
	 xmlns="http://www.w3.org/2000/svg" xmlns:xlink="http://www.w3.org/1999/xlink" x="0px" y="0px" viewBox="0 0 197.8 253.8"
	 style="enable-background:new 0 0 197.8 253.8;" xml:space="preserve">
<style type="text/css">
	.st0{fill:none;stroke:#000000;stroke-width:5.1;stroke-linecap:round;stroke-linejoin:round;stroke-miterlimit:10;}
	.st1{fill:none;stroke:#FAFAFA;stroke-width:5.1;stroke-linecap:round;stroke-linejoin:round;stroke-miterlimit:10;}
	
		.st2{fill-rule:evenodd;clip-rule:evenodd;fill:#DC4A5E;stroke:#FAFAFA;stroke-width:5.1;stroke-linecap:round;stroke-linejoin:round;stroke-miterlimit:10;}
	
		.st3{fill-rule:evenodd;clip-rule:evenodd;fill:#FAFAFA;stroke:#FAFAFA;stroke-width:5.1;stroke-linecap:round;stroke-linejoin:round;stroke-miterlimit:10;}
</style>
<g>
	<path class="st0" d="M150.7,60.8l44.2,45.9L134.8,137"/>
	<path class="st1" d="M78.5,120.9L55.4,163l10.2,40.9l4.7,28.8"/>
	<path class="st2" d="M101.7,2.6c35.7,1.6,63.5,28.9,62,61c-1.4,32.1-31.6,56.8-67.2,55.2S33,90,34.5,57.9C35.9,25.8,66,1,101.7,2.6
		L101.7,2.6z"/>
	<g>
		<path class="st1" d="M100.9,50.9l23.7,15.2"/>
		<path class="st1" d="M100.9,50.9l28.1-2.2"/>
	</g>
	<path class="st3" d="M81.5,62.8c7.8-0.4,14.5,6.6,15,15.8s-5.4,16.9-13.2,17.3c-7.8,0.4-14.5-6.6-15-15.8
		C67.8,71,73.7,63.3,81.5,62.8z"/>
	<g>
		<path class="st1" d="M84.5,45.1L62.7,31.2"/>
		<path class="st1" d="M84.5,45.1l-25.8,2.1"/>
	</g>
	<path class="st2" d="M54.1,102.3c9.2,7.8,23.5,15.7,42.4,16.6c12.2,0.5,23.7-2,33.7-6.8c0.2,0,22.6-5.9,26.2-13.2
		c4.8-10-11.7-34.7-0.6-41.2c15.1-8.9,42.8,36.9,39.2,55.1c-4.7,23.5-32.4,32.8-44.7,36.6c-0.3,0.1,35.2,75.9,14.6,90
		c-20.6,14.1-115,17.1-136.8,0C6.4,222.4,31,141,31,141S0.8,130.5,2.6,95.9c1.1-21,21-41.5,33.3-48.2c-0.8,3.3-1.3,6.7-1.5,10.2
		c-0.4,8.8,1.4,17.2,4.9,24.8c1.4,3,0.5,5.1,0.2,7.6c-0.5,3.9,1.8,6,6.5,7.2C49.2,98.3,52.7,101.1,54.1,102.3L54.1,102.3z"/>
	<path class="st1" d="M109.1,22.8c1.4,4.2,11.1,14.2,24.5,13.4"/>
	<path class="st1" d="M91.9,20.1c-2.4,2.3-12,5.2-20-0.4"/>
</g>
</svg>
