<?xml version="1.0" encoding="UTF-8" standalone="no"?>
<!DOCTYPE svg PUBLIC "-//W3C//DTD SVG 1.1//EN" "http://www.w3.org/Graphics/SVG/1.1/DTD/svg11.dtd">
<svg width="100%" height="100%" viewBox="0 0 96 96" version="1.1" xmlns="http://www.w3.org/2000/svg" xmlns:xlink="http://www.w3.org/1999/xlink" xml:space="preserve" xmlns:serif="http://www.serif.com/" style="fill-rule:evenodd;clip-rule:evenodd;stroke-linejoin:round;stroke-miterlimit:2;">
    <g transform="matrix(1,0,0,1,0,1.40641)">
        <g transform="matrix(0.857143,0,0,0.857143,5.98702,54.4665)">
            <g transform="matrix(1.7213,0,0,1.7213,4.85352,2.63709)">
                <path d="M10.59,13.41C11,13.8 11,14.44 10.59,14.83C10.2,15.22 9.56,15.22 9.17,14.83C7.22,12.88 7.22,9.71 9.17,7.76L12.71,4.22C14.66,2.27 17.83,2.27 19.78,4.22C21.73,6.17 21.73,9.34 19.78,11.29L18.29,12.78C18.3,11.96 18.17,11.14 17.89,10.36L18.36,9.88C19.54,8.71 19.54,6.81 18.36,5.64C17.19,4.46 15.29,4.46 14.12,5.64L10.59,9.17C9.41,10.34 9.41,12.24 10.59,13.41M13.41,9.17C13.8,8.78 14.44,8.78 14.83,9.17C16.78,11.12 16.78,14.29 14.83,16.24L11.29,19.78C9.34,21.73 6.17,21.73 4.22,19.78C2.27,17.83 2.27,14.66 4.22,12.71L5.71,11.22C5.7,12.04 5.83,12.86 6.11,13.65L5.64,14.12C4.46,15.29 4.46,17.19 5.64,18.36C6.81,19.54 8.71,19.54 9.88,18.36L13.41,14.83C14.59,13.66 14.59,11.76 13.41,10.59C13,10.2 13,9.56 13.41,9.17Z" style="fill:rgb(220,74,94);fill-rule:nonzero;"/>
            </g>
            <g transform="matrix(1.94444,0,0,1.94444,47.5969,-0.0406735)">
                <path d="M3,11L5,11L5,13L3,13L3,11M11,5L13,5L13,9L11,9L11,5M9,11L13,11L13,15L11,15L11,13L9,13L9,11M15,11L17,11L17,13L19,13L19,11L21,11L21,13L19,13L19,15L21,15L21,19L19,19L19,21L17,21L17,19L13,19L13,21L11,21L11,17L15,17L15,15L17,15L17,13L15,13L15,11M19,19L19,15L17,15L17,19L19,19M15,3L21,3L21,9L15,9L15,3M17,5L17,7L19,7L19,5L17,5M3,3L9,3L9,9L3,9L3,3M5,5L5,7L7,7L7,5L5,5M3,15L9,15L9,21L3,21L3,15M5,17L5,19L7,19L7,17L5,17Z" style="fill:rgb(220,74,94);fill-rule:nonzero;"/>
            </g>
        </g>
        <g transform="matrix(2.22222,0,0,2.22222,21.3333,-0.688889)">
            <path d="M18,16.08C17.24,16.08 16.56,16.38 16.04,16.85L8.91,12.7C8.96,12.47 9,12.24 9,12C9,11.76 8.96,11.53 8.91,11.3L15.96,7.19C16.5,7.69 17.21,8 18,8C19.646,8 21,6.646 21,5C21,3.354 19.646,2 18,2C16.354,2 15,3.354 15,5C15,5.24 15.04,5.47 15.09,5.7L8.04,9.81C7.5,9.31 6.79,9 6,9C4.354,9 3,10.354 3,12C3,13.646 4.354,15 6,15C6.79,15 7.5,14.69 8.04,14.19L15.16,18.34C15.11,18.55 15.08,18.77 15.08,19C15.08,20.61 16.39,21.91 18,21.91C19.61,21.91 20.92,20.61 20.92,19C20.92,17.398 19.602,16.08 18,16.08Z" style="fill:rgb(220,74,94);fill-rule:nonzero;"/>
        </g>
    </g>
    <g id="LINE-LOGO" serif:id="LINE LOGO">
    </g>
</svg>
