<svg id="レイヤー_1" data-name="レイヤー 1" xmlns="http://www.w3.org/2000/svg" viewBox="0 0 150.87 45.75"><defs><style>.cls-1{fill:#dc4a5e;}</style></defs><path class="cls-1" d="M34,29V34a7.37,7.37,0,0,1-4.33,1c-4.65,0-5.9-3.16-7-6-.91-2.36-1.72-4.47-4.27-4.47H17.14v3.74c0,4.23-1.83,6.77-6.24,6.77a7.64,7.64,0,0,1-4.37-1.53V28.8a3.8,3.8,0,0,0,2.78,1.3,1.67,1.67,0,0,0,1.83-1.83V9.84h6v9.75H18c4,0,8.4-2.12,8.4-6.68,0-5.23-5.66-7.39-10.13-7.39-5.13,0-10.56,3-10.56,8.79a6.1,6.1,0,0,0,1.63,4.51L3,22.56c-2.4-2.64-3-4.75-3-8.25C0,5.18,7.58,0,16.13,0S32.21,4.66,32.21,12.48c0,4.51-4.37,9.31-8.88,9.6,2.64.53,4.13,3.36,5.18,5.52.63,1.25,1.44,2.16,2.93,2.16A5,5,0,0,0,34,29Z"/><path class="cls-1" d="M46.51,30.43a7.73,7.73,0,0,0,5.14-1.72V34a12.65,12.65,0,0,1-5.14,1C40.75,35,36,31.4,36,25.35A9.44,9.44,0,0,1,45.17,16a9.54,9.54,0,0,1,8.45,4.41L44,30A6.89,6.89,0,0,0,46.51,30.43ZM40.8,25.35a5.07,5.07,0,0,0,.38,2L47,21.22a3.33,3.33,0,0,0-2.11-.63C42.24,20.59,40.8,22.85,40.8,25.35Z"/><path class="cls-1" d="M62.69,35c-3.17,0-5.23-2.88-5.23-5.85V.53h5.47V28.47a1.74,1.74,0,0,0,1.92,1.73,3,3,0,0,0,2-.77v4.41A6.82,6.82,0,0,1,62.69,35Z"/><path class="cls-1" d="M92.64,29.43v4.41A7,7,0,0,1,88.47,35a5.13,5.13,0,0,1-4.71-3.26A7,7,0,0,1,77.57,35c-5.38,0-8.83-4.37-8.83-9.55S72.19,16,77.57,16a7,7,0,0,1,5.66,2.49V16.37h5.48v12.1a1.74,1.74,0,0,0,1.92,1.73A3.17,3.17,0,0,0,92.64,29.43Zm-9.41-2.07V23.62a4.7,4.7,0,0,0-4.37-3.12,5,5,0,0,0,0,10A4.75,4.75,0,0,0,83.23,27.36Z"/><path class="cls-1" d="M112.56,16.37v21.7c0,3.55-2.59,7.68-6.53,7.68L104,41.19a3.25,3.25,0,0,0,3.12-3.12V32.88a5.76,5.76,0,0,1-4.71,2.21A6.49,6.49,0,0,1,96,28.37v-12h5.47V27.79c0,1.44.77,2.69,2.35,2.69,1.78,0,2.84-1.34,3.27-3.36V16.37Z"/><path class="cls-1" d="M146.74,35c-3.17,0-5.24-2.88-5.24-5.85v-6a2.42,2.42,0,0,0-2.4-2.69c-1.82,0-2.92,1.63-3.26,3.41v10.7h-5.47V23.19c0-1.44-.77-2.69-2.35-2.69-1.83,0-2.93,1.53-3.27,3.36V34.61h-5.47V16.37h5.47v1.78A5.78,5.78,0,0,1,129.46,16a6.16,6.16,0,0,1,5.23,2.78c1.05-2,3.31-2.78,5.47-2.78a6.44,6.44,0,0,1,6.77,6.62v5.86a1.79,1.79,0,0,0,2,1.73,3,3,0,0,0,2-.77v4.41A6.82,6.82,0,0,1,146.74,35Z"/></svg>